<mxfile host="65bd71144e">
    <diagram id="HDwmCHCDb6d26ePYv1gX" name="Page-1">
        <mxGraphModel dx="557" dy="548" grid="1" gridSize="10" guides="1" tooltips="1" connect="1" arrows="1" fold="1" page="1" pageScale="1" pageWidth="827" pageHeight="1169" background="#ffffff" math="0" shadow="0">
            <root>
                <mxCell id="0"/>
                <mxCell id="1" parent="0"/>
                <mxCell id="O1P1b6u8nso_QOeiBwt5-1" value="&lt;span style=&quot;font-size: 30px;&quot;&gt;client &lt;font color=&quot;#ff0000&quot;&gt;nextJS&lt;/font&gt;&lt;br&gt;&lt;/span&gt;" style="rounded=0;whiteSpace=wrap;html=1;" parent="1" vertex="1">
                    <mxGeometry x="259" y="170" width="310" height="90" as="geometry"/>
                </mxCell>
                <mxCell id="gF5L-ClVsSQP7lW-zP8s-2" style="edgeStyle=orthogonalEdgeStyle;rounded=0;orthogonalLoop=1;jettySize=auto;html=1;entryX=0.5;entryY=0;entryDx=0;entryDy=0;" parent="1" source="O1P1b6u8nso_QOeiBwt5-4" target="gF5L-ClVsSQP7lW-zP8s-1" edge="1">
                    <mxGeometry relative="1" as="geometry"/>
                </mxCell>
                <mxCell id="O1P1b6u8nso_QOeiBwt5-4" value="Todo" style="rounded=0;whiteSpace=wrap;html=1;fontSize=30;" parent="1" vertex="1">
                    <mxGeometry x="355" y="310" width="118" height="130" as="geometry"/>
                </mxCell>
                <mxCell id="gF5L-ClVsSQP7lW-zP8s-1" value="&lt;font color=&quot;#ff0000&quot; style=&quot;font-size: 20px;&quot;&gt;MongoDB&lt;/font&gt;" style="rounded=0;whiteSpace=wrap;html=1;fontSize=30;" parent="1" vertex="1">
                    <mxGeometry x="353" y="470" width="120" height="60" as="geometry"/>
                </mxCell>
                <mxCell id="gF5L-ClVsSQP7lW-zP8s-6" value="&lt;font size=&quot;3&quot;&gt;QueueManager&lt;br&gt;comsumer&lt;br&gt;producer&lt;br&gt;&lt;/font&gt;" style="rounded=0;whiteSpace=wrap;html=1;fontSize=25;" parent="1" vertex="1">
                    <mxGeometry x="93" y="310" width="121" height="220" as="geometry"/>
                </mxCell>
                <mxCell id="gF5L-ClVsSQP7lW-zP8s-9" style="edgeStyle=orthogonalEdgeStyle;rounded=0;orthogonalLoop=1;jettySize=auto;html=1;entryX=0.5;entryY=0;entryDx=0;entryDy=0;" parent="1" source="gF5L-ClVsSQP7lW-zP8s-10" target="gF5L-ClVsSQP7lW-zP8s-11" edge="1">
                    <mxGeometry relative="1" as="geometry"/>
                </mxCell>
                <mxCell id="gF5L-ClVsSQP7lW-zP8s-10" value="Auth&lt;br style=&quot;font-size: 14px&quot;&gt;&lt;font style=&quot;font-size: 12px&quot;&gt;Oauth-google-github&lt;/font&gt;" style="rounded=0;whiteSpace=wrap;html=1;fontSize=30;" parent="1" vertex="1">
                    <mxGeometry x="613" y="310" width="121" height="130" as="geometry"/>
                </mxCell>
                <mxCell id="gF5L-ClVsSQP7lW-zP8s-11" value="&lt;span style=&quot;color: rgb(255, 0, 0); font-size: 20px;&quot;&gt;MongoDB&lt;/span&gt;" style="rounded=0;whiteSpace=wrap;html=1;fontSize=30;" parent="1" vertex="1">
                    <mxGeometry x="614" y="470" width="120" height="60" as="geometry"/>
                </mxCell>
                <mxCell id="gF5L-ClVsSQP7lW-zP8s-12" value="" style="endArrow=none;dashed=1;html=1;rounded=0;fontSize=20;fontColor=#FF0000;" parent="1" edge="1">
                    <mxGeometry width="50" height="50" relative="1" as="geometry">
                        <mxPoint x="110" y="280" as="sourcePoint"/>
                        <mxPoint x="760" y="280" as="targetPoint"/>
                    </mxGeometry>
                </mxCell>
                <mxCell id="gF5L-ClVsSQP7lW-zP8s-13" value="&lt;h1&gt;&lt;font color=&quot;#000000&quot;&gt;ToDo List&lt;/font&gt;&lt;/h1&gt;" style="text;html=1;strokeColor=none;fillColor=none;spacing=5;spacingTop=-20;whiteSpace=wrap;overflow=hidden;rounded=0;fontSize=20;fontColor=#FF0000;" parent="1" vertex="1">
                    <mxGeometry x="325" y="70" width="190" height="80" as="geometry"/>
                </mxCell>
                <mxCell id="gF5L-ClVsSQP7lW-zP8s-17" value="ExpressJS" style="text;html=1;strokeColor=none;fillColor=none;align=center;verticalAlign=middle;whiteSpace=wrap;rounded=0;fontSize=20;fontColor=#FF0000;" parent="1" vertex="1">
                    <mxGeometry x="365" y="320" width="98" height="30" as="geometry"/>
                </mxCell>
                <mxCell id="gF5L-ClVsSQP7lW-zP8s-18" value="ExpressJS" style="text;html=1;strokeColor=none;fillColor=none;align=center;verticalAlign=middle;whiteSpace=wrap;rounded=0;fontSize=20;fontColor=#FF0000;" parent="1" vertex="1">
                    <mxGeometry x="624" y="320" width="100" height="30" as="geometry"/>
                </mxCell>
                <mxCell id="2" style="edgeStyle=orthogonalEdgeStyle;rounded=0;orthogonalLoop=1;jettySize=auto;html=1;entryX=0.5;entryY=0;entryDx=0;entryDy=0;" parent="1" source="3" target="4" edge="1">
                    <mxGeometry relative="1" as="geometry"/>
                </mxCell>
                <mxCell id="3" value="Group" style="rounded=0;whiteSpace=wrap;html=1;fontSize=30;" parent="1" vertex="1">
                    <mxGeometry x="224" y="310" width="120" height="130" as="geometry"/>
                </mxCell>
                <mxCell id="4" value="&lt;font color=&quot;#ff0000&quot; style=&quot;font-size: 20px;&quot;&gt;MongoDB&lt;/font&gt;" style="rounded=0;whiteSpace=wrap;html=1;fontSize=30;" parent="1" vertex="1">
                    <mxGeometry x="224" y="470" width="120" height="60" as="geometry"/>
                </mxCell>
                <mxCell id="5" value="ExpressJS" style="text;html=1;strokeColor=none;fillColor=none;align=center;verticalAlign=middle;whiteSpace=wrap;rounded=0;fontSize=20;fontColor=#FF0000;" parent="1" vertex="1">
                    <mxGeometry x="234" y="320" width="100" height="30" as="geometry"/>
                </mxCell>
                <mxCell id="76k6Pg_ikLqjMXlGlqFL-7" value="Redis-smq" style="text;html=1;strokeColor=none;fillColor=none;align=center;verticalAlign=middle;whiteSpace=wrap;rounded=0;fontSize=20;fontColor=#FF0000;" parent="1" vertex="1">
                    <mxGeometry x="108" y="330" width="100" height="30" as="geometry"/>
                </mxCell>
                <mxCell id="6" style="edgeStyle=orthogonalEdgeStyle;rounded=0;orthogonalLoop=1;jettySize=auto;html=1;entryX=0.5;entryY=0;entryDx=0;entryDy=0;" parent="1" source="7" target="8" edge="1">
                    <mxGeometry relative="1" as="geometry"/>
                </mxCell>
                <mxCell id="7" value="query" style="rounded=0;whiteSpace=wrap;html=1;fontSize=30;" parent="1" vertex="1">
                    <mxGeometry x="485" y="310" width="118" height="130" as="geometry"/>
                </mxCell>
                <mxCell id="8" value="&lt;font color=&quot;#ff0000&quot; style=&quot;font-size: 20px;&quot;&gt;MongoDB&lt;/font&gt;" style="rounded=0;whiteSpace=wrap;html=1;fontSize=30;" parent="1" vertex="1">
                    <mxGeometry x="483" y="470" width="120" height="60" as="geometry"/>
                </mxCell>
                <mxCell id="9" value="ExpressJS" style="text;html=1;strokeColor=none;fillColor=none;align=center;verticalAlign=middle;whiteSpace=wrap;rounded=0;fontSize=20;fontColor=#FF0000;" parent="1" vertex="1">
                    <mxGeometry x="495" y="320" width="98" height="30" as="geometry"/>
                </mxCell>
            </root>
        </mxGraphModel>
    </diagram>
    <diagram id="kNeOJjnv65M7sDIE50Z1" name="第2頁">
        <mxGraphModel dx="557" dy="548" grid="1" gridSize="10" guides="1" tooltips="1" connect="1" arrows="1" fold="1" page="1" pageScale="1" pageWidth="827" pageHeight="1169" math="0" shadow="0">
            <root>
                <mxCell id="o2rCxQrs2q715OUxCT-L-0"/>
                <mxCell id="o2rCxQrs2q715OUxCT-L-1" parent="o2rCxQrs2q715OUxCT-L-0"/>
                <mxCell id="GUaRKHb3KNpF5MCqsxgn-0" value="Group" style="shape=table;startSize=30;container=1;collapsible=0;childLayout=tableLayout;fontStyle=1;align=center;pointerEvents=1;rounded=0;shadow=0;sketch=0;fontSize=20;swimlaneFillColor=default;fillColor=#dae8fc;strokeColor=#6c8ebf;labelBackgroundColor=none;labelBorderColor=none;gradientColor=none;" parent="o2rCxQrs2q715OUxCT-L-1" vertex="1">
                    <mxGeometry x="850" y="989.5" width="210" height="169" as="geometry"/>
                </mxCell>
                <mxCell id="GUaRKHb3KNpF5MCqsxgn-1" value="" style="shape=partialRectangle;whiteSpace=wrap;collapsible=0;dropTarget=0;pointerEvents=0;fillColor=none;top=0;left=0;bottom=0;right=0;points=[[0,0.5],[1,0.5]];portConstraint=eastwest;rounded=0;shadow=0;sketch=0;fontSize=12;labelBackgroundColor=none;labelBorderColor=none;" parent="GUaRKHb3KNpF5MCqsxgn-0" vertex="1">
                    <mxGeometry y="30" width="210" height="47" as="geometry"/>
                </mxCell>
                <mxCell id="GUaRKHb3KNpF5MCqsxgn-2" value="todoId" style="shape=partialRectangle;whiteSpace=wrap;connectable=0;fillColor=none;top=0;left=0;bottom=0;right=0;overflow=hidden;pointerEvents=1;rounded=0;shadow=0;sketch=0;fontSize=20;labelBackgroundColor=none;labelBorderColor=none;" parent="GUaRKHb3KNpF5MCqsxgn-1" vertex="1">
                    <mxGeometry width="105" height="47" as="geometry">
                        <mxRectangle width="105" height="47" as="alternateBounds"/>
                    </mxGeometry>
                </mxCell>
                <mxCell id="GUaRKHb3KNpF5MCqsxgn-3" value="Ref Todo" style="shape=partialRectangle;whiteSpace=wrap;connectable=0;fillColor=none;top=0;left=0;bottom=0;right=0;overflow=hidden;pointerEvents=1;rounded=0;shadow=0;sketch=0;fontSize=20;labelBackgroundColor=none;labelBorderColor=none;" parent="GUaRKHb3KNpF5MCqsxgn-1" vertex="1">
                    <mxGeometry x="105" width="105" height="47" as="geometry">
                        <mxRectangle width="105" height="47" as="alternateBounds"/>
                    </mxGeometry>
                </mxCell>
                <mxCell id="E9ndGb-GjxetoJuvbahn-0" style="shape=partialRectangle;whiteSpace=wrap;collapsible=0;dropTarget=0;pointerEvents=0;fillColor=none;top=0;left=0;bottom=0;right=0;points=[[0,0.5],[1,0.5]];portConstraint=eastwest;rounded=0;shadow=0;sketch=0;fontSize=12;labelBackgroundColor=none;labelBorderColor=none;" parent="GUaRKHb3KNpF5MCqsxgn-0" vertex="1">
                    <mxGeometry y="77" width="210" height="46" as="geometry"/>
                </mxCell>
                <mxCell id="E9ndGb-GjxetoJuvbahn-1" value="userId" style="shape=partialRectangle;whiteSpace=wrap;connectable=0;fillColor=none;top=0;left=0;bottom=0;right=0;overflow=hidden;pointerEvents=1;rounded=0;shadow=0;sketch=0;fontSize=20;labelBackgroundColor=none;labelBorderColor=none;" parent="E9ndGb-GjxetoJuvbahn-0" vertex="1">
                    <mxGeometry width="105" height="46" as="geometry">
                        <mxRectangle width="105" height="46" as="alternateBounds"/>
                    </mxGeometry>
                </mxCell>
                <mxCell id="E9ndGb-GjxetoJuvbahn-2" value="string" style="shape=partialRectangle;whiteSpace=wrap;connectable=0;fillColor=none;top=0;left=0;bottom=0;right=0;overflow=hidden;pointerEvents=1;rounded=0;shadow=0;sketch=0;fontSize=20;labelBackgroundColor=none;labelBorderColor=none;" parent="E9ndGb-GjxetoJuvbahn-0" vertex="1">
                    <mxGeometry x="105" width="105" height="46" as="geometry">
                        <mxRectangle width="105" height="46" as="alternateBounds"/>
                    </mxGeometry>
                </mxCell>
                <mxCell id="GUaRKHb3KNpF5MCqsxgn-4" value="" style="shape=partialRectangle;whiteSpace=wrap;collapsible=0;dropTarget=0;pointerEvents=0;fillColor=none;top=0;left=0;bottom=0;right=0;points=[[0,0.5],[1,0.5]];portConstraint=eastwest;rounded=0;shadow=0;sketch=0;fontSize=12;labelBackgroundColor=none;labelBorderColor=none;" parent="GUaRKHb3KNpF5MCqsxgn-0" vertex="1">
                    <mxGeometry y="123" width="210" height="46" as="geometry"/>
                </mxCell>
                <mxCell id="GUaRKHb3KNpF5MCqsxgn-5" value="member" style="shape=partialRectangle;whiteSpace=wrap;connectable=0;fillColor=none;top=0;left=0;bottom=0;right=0;overflow=hidden;pointerEvents=1;rounded=0;shadow=0;sketch=0;fontSize=20;labelBackgroundColor=none;labelBorderColor=none;" parent="GUaRKHb3KNpF5MCqsxgn-4" vertex="1">
                    <mxGeometry width="105" height="46" as="geometry">
                        <mxRectangle width="105" height="46" as="alternateBounds"/>
                    </mxGeometry>
                </mxCell>
                <mxCell id="GUaRKHb3KNpF5MCqsxgn-6" value="string[]" style="shape=partialRectangle;whiteSpace=wrap;connectable=0;fillColor=none;top=0;left=0;bottom=0;right=0;overflow=hidden;pointerEvents=1;rounded=0;shadow=0;sketch=0;fontSize=20;labelBackgroundColor=none;labelBorderColor=none;" parent="GUaRKHb3KNpF5MCqsxgn-4" vertex="1">
                    <mxGeometry x="105" width="105" height="46" as="geometry">
                        <mxRectangle width="105" height="46" as="alternateBounds"/>
                    </mxGeometry>
                </mxCell>
                <mxCell id="rxuDzsYk6l3-nFHS3t-N-0" value="Auth" style="shape=table;startSize=30;container=1;collapsible=0;childLayout=tableLayout;fontStyle=1;align=center;pointerEvents=1;" parent="o2rCxQrs2q715OUxCT-L-1" vertex="1">
                    <mxGeometry x="80" y="360" width="573" height="210" as="geometry"/>
                </mxCell>
                <mxCell id="rxuDzsYk6l3-nFHS3t-N-1" value="" style="shape=partialRectangle;html=1;whiteSpace=wrap;collapsible=0;dropTarget=0;pointerEvents=0;fillColor=none;top=0;left=0;bottom=0;right=0;points=[[0,0.5],[1,0.5]];portConstraint=eastwest;" parent="rxuDzsYk6l3-nFHS3t-N-0" vertex="1">
                    <mxGeometry y="30" width="573" height="40" as="geometry"/>
                </mxCell>
                <mxCell id="rxuDzsYk6l3-nFHS3t-N-34" value="Sign Up" style="shape=partialRectangle;html=1;whiteSpace=wrap;connectable=0;fillColor=none;top=0;left=0;bottom=0;right=0;overflow=hidden;pointerEvents=1;fontSize=15;" parent="rxuDzsYk6l3-nFHS3t-N-1" vertex="1">
                    <mxGeometry width="93" height="40" as="geometry">
                        <mxRectangle width="93" height="40" as="alternateBounds"/>
                    </mxGeometry>
                </mxCell>
                <mxCell id="rxuDzsYk6l3-nFHS3t-N-2" value="POST" style="shape=partialRectangle;html=1;whiteSpace=wrap;connectable=0;fillColor=none;top=0;left=0;bottom=0;right=0;overflow=hidden;pointerEvents=1;fontSize=15;" parent="rxuDzsYk6l3-nFHS3t-N-1" vertex="1">
                    <mxGeometry x="93" width="93" height="40" as="geometry">
                        <mxRectangle width="93" height="40" as="alternateBounds"/>
                    </mxGeometry>
                </mxCell>
                <mxCell id="rxuDzsYk6l3-nFHS3t-N-3" value="&lt;span style=&quot;font-size: 15px&quot;&gt;/api/users/signup&lt;/span&gt;" style="shape=partialRectangle;html=1;whiteSpace=wrap;connectable=0;fillColor=none;top=0;left=0;bottom=0;right=0;overflow=hidden;pointerEvents=1;fontSize=15;" parent="rxuDzsYk6l3-nFHS3t-N-1" vertex="1">
                    <mxGeometry x="186" width="167" height="40" as="geometry">
                        <mxRectangle width="167" height="40" as="alternateBounds"/>
                    </mxGeometry>
                </mxCell>
                <mxCell id="rxuDzsYk6l3-nFHS3t-N-4" value="{email:string, password: string}" style="shape=partialRectangle;html=1;whiteSpace=wrap;connectable=0;fillColor=none;top=0;left=0;bottom=0;right=0;overflow=hidden;pointerEvents=1;fontSize=15;" parent="rxuDzsYk6l3-nFHS3t-N-1" vertex="1">
                    <mxGeometry x="353" width="220" height="40" as="geometry">
                        <mxRectangle width="220" height="40" as="alternateBounds"/>
                    </mxGeometry>
                </mxCell>
                <mxCell id="rxuDzsYk6l3-nFHS3t-N-5" value="" style="shape=partialRectangle;html=1;whiteSpace=wrap;collapsible=0;dropTarget=0;pointerEvents=0;fillColor=none;top=0;left=0;bottom=0;right=0;points=[[0,0.5],[1,0.5]];portConstraint=eastwest;" parent="rxuDzsYk6l3-nFHS3t-N-0" vertex="1">
                    <mxGeometry y="70" width="573" height="60" as="geometry"/>
                </mxCell>
                <mxCell id="rxuDzsYk6l3-nFHS3t-N-35" value="Sign In" style="shape=partialRectangle;html=1;whiteSpace=wrap;connectable=0;fillColor=none;top=0;left=0;bottom=0;right=0;overflow=hidden;pointerEvents=1;fontSize=15;" parent="rxuDzsYk6l3-nFHS3t-N-5" vertex="1">
                    <mxGeometry width="93" height="60" as="geometry">
                        <mxRectangle width="93" height="60" as="alternateBounds"/>
                    </mxGeometry>
                </mxCell>
                <mxCell id="rxuDzsYk6l3-nFHS3t-N-6" value="POST" style="shape=partialRectangle;html=1;whiteSpace=wrap;connectable=0;fillColor=none;top=0;left=0;bottom=0;right=0;overflow=hidden;pointerEvents=1;fontSize=15;" parent="rxuDzsYk6l3-nFHS3t-N-5" vertex="1">
                    <mxGeometry x="93" width="93" height="60" as="geometry">
                        <mxRectangle width="93" height="60" as="alternateBounds"/>
                    </mxGeometry>
                </mxCell>
                <mxCell id="rxuDzsYk6l3-nFHS3t-N-7" value="&lt;span&gt;/api/users/signin&lt;/span&gt;" style="shape=partialRectangle;html=1;whiteSpace=wrap;connectable=0;fillColor=none;top=0;left=0;bottom=0;right=0;overflow=hidden;pointerEvents=1;fontSize=15;" parent="rxuDzsYk6l3-nFHS3t-N-5" vertex="1">
                    <mxGeometry x="186" width="167" height="60" as="geometry">
                        <mxRectangle width="167" height="60" as="alternateBounds"/>
                    </mxGeometry>
                </mxCell>
                <mxCell id="rxuDzsYk6l3-nFHS3t-N-8" value="{email:string, password: string}" style="shape=partialRectangle;html=1;whiteSpace=wrap;connectable=0;fillColor=none;top=0;left=0;bottom=0;right=0;overflow=hidden;pointerEvents=1;fontSize=15;" parent="rxuDzsYk6l3-nFHS3t-N-5" vertex="1">
                    <mxGeometry x="353" width="220" height="60" as="geometry">
                        <mxRectangle width="220" height="60" as="alternateBounds"/>
                    </mxGeometry>
                </mxCell>
                <mxCell id="rxuDzsYk6l3-nFHS3t-N-9" value="" style="shape=partialRectangle;html=1;whiteSpace=wrap;collapsible=0;dropTarget=0;pointerEvents=0;fillColor=none;top=0;left=0;bottom=0;right=0;points=[[0,0.5],[1,0.5]];portConstraint=eastwest;" parent="rxuDzsYk6l3-nFHS3t-N-0" vertex="1">
                    <mxGeometry y="130" width="573" height="40" as="geometry"/>
                </mxCell>
                <mxCell id="rxuDzsYk6l3-nFHS3t-N-36" value="Sign Out" style="shape=partialRectangle;html=1;whiteSpace=wrap;connectable=0;fillColor=none;top=0;left=0;bottom=0;right=0;overflow=hidden;pointerEvents=1;fontSize=15;" parent="rxuDzsYk6l3-nFHS3t-N-9" vertex="1">
                    <mxGeometry width="93" height="40" as="geometry">
                        <mxRectangle width="93" height="40" as="alternateBounds"/>
                    </mxGeometry>
                </mxCell>
                <mxCell id="rxuDzsYk6l3-nFHS3t-N-10" value="POST" style="shape=partialRectangle;html=1;whiteSpace=wrap;connectable=0;fillColor=none;top=0;left=0;bottom=0;right=0;overflow=hidden;pointerEvents=1;fontSize=15;" parent="rxuDzsYk6l3-nFHS3t-N-9" vertex="1">
                    <mxGeometry x="93" width="93" height="40" as="geometry">
                        <mxRectangle width="93" height="40" as="alternateBounds"/>
                    </mxGeometry>
                </mxCell>
                <mxCell id="rxuDzsYk6l3-nFHS3t-N-11" value="&lt;span&gt;/api/users/signout&lt;/span&gt;" style="shape=partialRectangle;html=1;whiteSpace=wrap;connectable=0;fillColor=none;top=0;left=0;bottom=0;right=0;overflow=hidden;pointerEvents=1;fontSize=15;" parent="rxuDzsYk6l3-nFHS3t-N-9" vertex="1">
                    <mxGeometry x="186" width="167" height="40" as="geometry">
                        <mxRectangle width="167" height="40" as="alternateBounds"/>
                    </mxGeometry>
                </mxCell>
                <mxCell id="rxuDzsYk6l3-nFHS3t-N-12" value="{}" style="shape=partialRectangle;html=1;whiteSpace=wrap;connectable=0;fillColor=none;top=0;left=0;bottom=0;right=0;overflow=hidden;pointerEvents=1;fontSize=15;" parent="rxuDzsYk6l3-nFHS3t-N-9" vertex="1">
                    <mxGeometry x="353" width="220" height="40" as="geometry">
                        <mxRectangle width="220" height="40" as="alternateBounds"/>
                    </mxGeometry>
                </mxCell>
                <mxCell id="rxuDzsYk6l3-nFHS3t-N-13" style="shape=partialRectangle;html=1;whiteSpace=wrap;collapsible=0;dropTarget=0;pointerEvents=0;fillColor=none;top=0;left=0;bottom=0;right=0;points=[[0,0.5],[1,0.5]];portConstraint=eastwest;" parent="rxuDzsYk6l3-nFHS3t-N-0" vertex="1">
                    <mxGeometry y="170" width="573" height="40" as="geometry"/>
                </mxCell>
                <mxCell id="rxuDzsYk6l3-nFHS3t-N-37" value="CurrentUser" style="shape=partialRectangle;html=1;whiteSpace=wrap;connectable=0;fillColor=none;top=0;left=0;bottom=0;right=0;overflow=hidden;pointerEvents=1;fontSize=15;" parent="rxuDzsYk6l3-nFHS3t-N-13" vertex="1">
                    <mxGeometry width="93" height="40" as="geometry">
                        <mxRectangle width="93" height="40" as="alternateBounds"/>
                    </mxGeometry>
                </mxCell>
                <mxCell id="rxuDzsYk6l3-nFHS3t-N-14" value="GET" style="shape=partialRectangle;html=1;whiteSpace=wrap;connectable=0;fillColor=none;top=0;left=0;bottom=0;right=0;overflow=hidden;pointerEvents=1;fontSize=15;" parent="rxuDzsYk6l3-nFHS3t-N-13" vertex="1">
                    <mxGeometry x="93" width="93" height="40" as="geometry">
                        <mxRectangle width="93" height="40" as="alternateBounds"/>
                    </mxGeometry>
                </mxCell>
                <mxCell id="rxuDzsYk6l3-nFHS3t-N-15" value="&lt;span&gt;/api/users/currentuser&lt;/span&gt;" style="shape=partialRectangle;html=1;whiteSpace=wrap;connectable=0;fillColor=none;top=0;left=0;bottom=0;right=0;overflow=hidden;pointerEvents=1;fontSize=15;" parent="rxuDzsYk6l3-nFHS3t-N-13" vertex="1">
                    <mxGeometry x="186" width="167" height="40" as="geometry">
                        <mxRectangle width="167" height="40" as="alternateBounds"/>
                    </mxGeometry>
                </mxCell>
                <mxCell id="rxuDzsYk6l3-nFHS3t-N-16" value="-" style="shape=partialRectangle;html=1;whiteSpace=wrap;connectable=0;fillColor=none;top=0;left=0;bottom=0;right=0;overflow=hidden;pointerEvents=1;fontSize=15;" parent="rxuDzsYk6l3-nFHS3t-N-13" vertex="1">
                    <mxGeometry x="353" width="220" height="40" as="geometry">
                        <mxRectangle width="220" height="40" as="alternateBounds"/>
                    </mxGeometry>
                </mxCell>
                <mxCell id="rxuDzsYk6l3-nFHS3t-N-17" value="Todo" style="shape=table;startSize=30;container=1;collapsible=0;childLayout=tableLayout;fontStyle=1;align=center;pointerEvents=1;" parent="o2rCxQrs2q715OUxCT-L-1" vertex="1">
                    <mxGeometry x="80" y="585" width="573" height="230" as="geometry"/>
                </mxCell>
                <mxCell id="rxuDzsYk6l3-nFHS3t-N-18" value="" style="shape=partialRectangle;html=1;whiteSpace=wrap;collapsible=0;dropTarget=0;pointerEvents=0;fillColor=none;top=0;left=0;bottom=0;right=0;points=[[0,0.5],[1,0.5]];portConstraint=eastwest;" parent="rxuDzsYk6l3-nFHS3t-N-17" vertex="1">
                    <mxGeometry y="30" width="573" height="40" as="geometry"/>
                </mxCell>
                <mxCell id="rxuDzsYk6l3-nFHS3t-N-42" value="Get all todos" style="shape=partialRectangle;html=1;whiteSpace=wrap;connectable=0;fillColor=none;top=0;left=0;bottom=0;right=0;overflow=hidden;pointerEvents=1;fontSize=15;" parent="rxuDzsYk6l3-nFHS3t-N-18" vertex="1">
                    <mxGeometry width="93" height="40" as="geometry">
                        <mxRectangle width="93" height="40" as="alternateBounds"/>
                    </mxGeometry>
                </mxCell>
                <mxCell id="rxuDzsYk6l3-nFHS3t-N-19" value="GET" style="shape=partialRectangle;html=1;whiteSpace=wrap;connectable=0;fillColor=none;top=0;left=0;bottom=0;right=0;overflow=hidden;pointerEvents=1;fontSize=15;" parent="rxuDzsYk6l3-nFHS3t-N-18" vertex="1">
                    <mxGeometry x="93" width="93" height="40" as="geometry">
                        <mxRectangle width="93" height="40" as="alternateBounds"/>
                    </mxGeometry>
                </mxCell>
                <mxCell id="rxuDzsYk6l3-nFHS3t-N-20" value="/api/todo" style="shape=partialRectangle;html=1;whiteSpace=wrap;connectable=0;fillColor=none;top=0;left=0;bottom=0;right=0;overflow=hidden;pointerEvents=1;fontSize=15;" parent="rxuDzsYk6l3-nFHS3t-N-18" vertex="1">
                    <mxGeometry x="186" width="167" height="40" as="geometry">
                        <mxRectangle width="167" height="40" as="alternateBounds"/>
                    </mxGeometry>
                </mxCell>
                <mxCell id="rxuDzsYk6l3-nFHS3t-N-21" value="-" style="shape=partialRectangle;html=1;whiteSpace=wrap;connectable=0;fillColor=none;top=0;left=0;bottom=0;right=0;overflow=hidden;pointerEvents=1;fontSize=15;" parent="rxuDzsYk6l3-nFHS3t-N-18" vertex="1">
                    <mxGeometry x="353" width="220" height="40" as="geometry">
                        <mxRectangle width="220" height="40" as="alternateBounds"/>
                    </mxGeometry>
                </mxCell>
                <mxCell id="rxuDzsYk6l3-nFHS3t-N-22" value="" style="shape=partialRectangle;html=1;whiteSpace=wrap;collapsible=0;dropTarget=0;pointerEvents=0;fillColor=none;top=0;left=0;bottom=0;right=0;points=[[0,0.5],[1,0.5]];portConstraint=eastwest;" parent="rxuDzsYk6l3-nFHS3t-N-17" vertex="1">
                    <mxGeometry y="70" width="573" height="40" as="geometry"/>
                </mxCell>
                <mxCell id="rxuDzsYk6l3-nFHS3t-N-43" value="Get specific todo" style="shape=partialRectangle;html=1;whiteSpace=wrap;connectable=0;fillColor=none;top=0;left=0;bottom=0;right=0;overflow=hidden;pointerEvents=1;fontSize=15;" parent="rxuDzsYk6l3-nFHS3t-N-22" vertex="1">
                    <mxGeometry width="93" height="40" as="geometry">
                        <mxRectangle width="93" height="40" as="alternateBounds"/>
                    </mxGeometry>
                </mxCell>
                <mxCell id="rxuDzsYk6l3-nFHS3t-N-23" value="GET" style="shape=partialRectangle;html=1;whiteSpace=wrap;connectable=0;fillColor=none;top=0;left=0;bottom=0;right=0;overflow=hidden;pointerEvents=1;fontSize=15;" parent="rxuDzsYk6l3-nFHS3t-N-22" vertex="1">
                    <mxGeometry x="93" width="93" height="40" as="geometry">
                        <mxRectangle width="93" height="40" as="alternateBounds"/>
                    </mxGeometry>
                </mxCell>
                <mxCell id="rxuDzsYk6l3-nFHS3t-N-24" value="/api/todo/:id" style="shape=partialRectangle;html=1;whiteSpace=wrap;connectable=0;fillColor=none;top=0;left=0;bottom=0;right=0;overflow=hidden;pointerEvents=1;fontSize=15;" parent="rxuDzsYk6l3-nFHS3t-N-22" vertex="1">
                    <mxGeometry x="186" width="167" height="40" as="geometry">
                        <mxRectangle width="167" height="40" as="alternateBounds"/>
                    </mxGeometry>
                </mxCell>
                <mxCell id="rxuDzsYk6l3-nFHS3t-N-25" value="-" style="shape=partialRectangle;html=1;whiteSpace=wrap;connectable=0;fillColor=none;top=0;left=0;bottom=0;right=0;overflow=hidden;pointerEvents=1;fontSize=15;" parent="rxuDzsYk6l3-nFHS3t-N-22" vertex="1">
                    <mxGeometry x="353" width="220" height="40" as="geometry">
                        <mxRectangle width="220" height="40" as="alternateBounds"/>
                    </mxGeometry>
                </mxCell>
                <mxCell id="rxuDzsYk6l3-nFHS3t-N-26" value="" style="shape=partialRectangle;html=1;whiteSpace=wrap;collapsible=0;dropTarget=0;pointerEvents=0;fillColor=none;top=0;left=0;bottom=0;right=0;points=[[0,0.5],[1,0.5]];portConstraint=eastwest;" parent="rxuDzsYk6l3-nFHS3t-N-17" vertex="1">
                    <mxGeometry y="110" width="573" height="40" as="geometry"/>
                </mxCell>
                <mxCell id="rxuDzsYk6l3-nFHS3t-N-44" value="Create todo" style="shape=partialRectangle;html=1;whiteSpace=wrap;connectable=0;fillColor=none;top=0;left=0;bottom=0;right=0;overflow=hidden;pointerEvents=1;fontSize=15;" parent="rxuDzsYk6l3-nFHS3t-N-26" vertex="1">
                    <mxGeometry width="93" height="40" as="geometry">
                        <mxRectangle width="93" height="40" as="alternateBounds"/>
                    </mxGeometry>
                </mxCell>
                <mxCell id="rxuDzsYk6l3-nFHS3t-N-27" value="POST" style="shape=partialRectangle;html=1;whiteSpace=wrap;connectable=0;fillColor=none;top=0;left=0;bottom=0;right=0;overflow=hidden;pointerEvents=1;fontSize=15;" parent="rxuDzsYk6l3-nFHS3t-N-26" vertex="1">
                    <mxGeometry x="93" width="93" height="40" as="geometry">
                        <mxRectangle width="93" height="40" as="alternateBounds"/>
                    </mxGeometry>
                </mxCell>
                <mxCell id="rxuDzsYk6l3-nFHS3t-N-28" value="&lt;span&gt;/api/todo&lt;/span&gt;" style="shape=partialRectangle;html=1;whiteSpace=wrap;connectable=0;fillColor=none;top=0;left=0;bottom=0;right=0;overflow=hidden;pointerEvents=1;fontSize=15;" parent="rxuDzsYk6l3-nFHS3t-N-26" vertex="1">
                    <mxGeometry x="186" width="167" height="40" as="geometry">
                        <mxRectangle width="167" height="40" as="alternateBounds"/>
                    </mxGeometry>
                </mxCell>
                <mxCell id="rxuDzsYk6l3-nFHS3t-N-29" value="{title:string, content:string}" style="shape=partialRectangle;html=1;whiteSpace=wrap;connectable=0;fillColor=none;top=0;left=0;bottom=0;right=0;overflow=hidden;pointerEvents=1;fontSize=15;" parent="rxuDzsYk6l3-nFHS3t-N-26" vertex="1">
                    <mxGeometry x="353" width="220" height="40" as="geometry">
                        <mxRectangle width="220" height="40" as="alternateBounds"/>
                    </mxGeometry>
                </mxCell>
                <mxCell id="rxuDzsYk6l3-nFHS3t-N-30" style="shape=partialRectangle;html=1;whiteSpace=wrap;collapsible=0;dropTarget=0;pointerEvents=0;fillColor=none;top=0;left=0;bottom=0;right=0;points=[[0,0.5],[1,0.5]];portConstraint=eastwest;" parent="rxuDzsYk6l3-nFHS3t-N-17" vertex="1">
                    <mxGeometry y="150" width="573" height="40" as="geometry"/>
                </mxCell>
                <mxCell id="rxuDzsYk6l3-nFHS3t-N-45" value="Update todo" style="shape=partialRectangle;html=1;whiteSpace=wrap;connectable=0;fillColor=none;top=0;left=0;bottom=0;right=0;overflow=hidden;pointerEvents=1;fontSize=15;" parent="rxuDzsYk6l3-nFHS3t-N-30" vertex="1">
                    <mxGeometry width="93" height="40" as="geometry">
                        <mxRectangle width="93" height="40" as="alternateBounds"/>
                    </mxGeometry>
                </mxCell>
                <mxCell id="rxuDzsYk6l3-nFHS3t-N-31" value="PUT" style="shape=partialRectangle;html=1;whiteSpace=wrap;connectable=0;fillColor=none;top=0;left=0;bottom=0;right=0;overflow=hidden;pointerEvents=1;fontSize=15;" parent="rxuDzsYk6l3-nFHS3t-N-30" vertex="1">
                    <mxGeometry x="93" width="93" height="40" as="geometry">
                        <mxRectangle width="93" height="40" as="alternateBounds"/>
                    </mxGeometry>
                </mxCell>
                <mxCell id="rxuDzsYk6l3-nFHS3t-N-32" value="/api/todo/:id" style="shape=partialRectangle;html=1;whiteSpace=wrap;connectable=0;fillColor=none;top=0;left=0;bottom=0;right=0;overflow=hidden;pointerEvents=1;fontSize=15;" parent="rxuDzsYk6l3-nFHS3t-N-30" vertex="1">
                    <mxGeometry x="186" width="167" height="40" as="geometry">
                        <mxRectangle width="167" height="40" as="alternateBounds"/>
                    </mxGeometry>
                </mxCell>
                <mxCell id="rxuDzsYk6l3-nFHS3t-N-33" value="{title:string, content:string}" style="shape=partialRectangle;html=1;whiteSpace=wrap;connectable=0;fillColor=none;top=0;left=0;bottom=0;right=0;overflow=hidden;pointerEvents=1;fontSize=15;" parent="rxuDzsYk6l3-nFHS3t-N-30" vertex="1">
                    <mxGeometry x="353" width="220" height="40" as="geometry">
                        <mxRectangle width="220" height="40" as="alternateBounds"/>
                    </mxGeometry>
                </mxCell>
                <mxCell id="rtRRFgjXTYYZUIerYxhb-0" style="shape=partialRectangle;html=1;whiteSpace=wrap;collapsible=0;dropTarget=0;pointerEvents=0;fillColor=none;top=0;left=0;bottom=0;right=0;points=[[0,0.5],[1,0.5]];portConstraint=eastwest;" parent="rxuDzsYk6l3-nFHS3t-N-17" vertex="1">
                    <mxGeometry y="190" width="573" height="40" as="geometry"/>
                </mxCell>
                <mxCell id="rtRRFgjXTYYZUIerYxhb-1" value="Delete todo" style="shape=partialRectangle;html=1;whiteSpace=wrap;connectable=0;fillColor=none;top=0;left=0;bottom=0;right=0;overflow=hidden;pointerEvents=1;fontSize=15;" parent="rtRRFgjXTYYZUIerYxhb-0" vertex="1">
                    <mxGeometry width="93" height="40" as="geometry">
                        <mxRectangle width="93" height="40" as="alternateBounds"/>
                    </mxGeometry>
                </mxCell>
                <mxCell id="rtRRFgjXTYYZUIerYxhb-2" value="DELETE" style="shape=partialRectangle;html=1;whiteSpace=wrap;connectable=0;fillColor=none;top=0;left=0;bottom=0;right=0;overflow=hidden;pointerEvents=1;fontSize=15;" parent="rtRRFgjXTYYZUIerYxhb-0" vertex="1">
                    <mxGeometry x="93" width="93" height="40" as="geometry">
                        <mxRectangle width="93" height="40" as="alternateBounds"/>
                    </mxGeometry>
                </mxCell>
                <mxCell id="rtRRFgjXTYYZUIerYxhb-3" value="/api/todo/:id" style="shape=partialRectangle;html=1;whiteSpace=wrap;connectable=0;fillColor=none;top=0;left=0;bottom=0;right=0;overflow=hidden;pointerEvents=1;fontSize=15;" parent="rtRRFgjXTYYZUIerYxhb-0" vertex="1">
                    <mxGeometry x="186" width="167" height="40" as="geometry">
                        <mxRectangle width="167" height="40" as="alternateBounds"/>
                    </mxGeometry>
                </mxCell>
                <mxCell id="rtRRFgjXTYYZUIerYxhb-4" style="shape=partialRectangle;html=1;whiteSpace=wrap;connectable=0;fillColor=none;top=0;left=0;bottom=0;right=0;overflow=hidden;pointerEvents=1;fontSize=15;" parent="rtRRFgjXTYYZUIerYxhb-0" vertex="1">
                    <mxGeometry x="353" width="220" height="40" as="geometry">
                        <mxRectangle width="220" height="40" as="alternateBounds"/>
                    </mxGeometry>
                </mxCell>
                <mxCell id="piiGVLoHhksso8CYTRYM-20" value="Group" style="shape=table;startSize=30;container=1;collapsible=0;childLayout=tableLayout;fontStyle=1;align=center;pointerEvents=1;" parent="o2rCxQrs2q715OUxCT-L-1" vertex="1">
                    <mxGeometry x="1070" y="999" width="573" height="150" as="geometry"/>
                </mxCell>
                <mxCell id="YvzN3JrjDwVjsz09u-Xr-0" style="shape=partialRectangle;html=1;whiteSpace=wrap;collapsible=0;dropTarget=0;pointerEvents=0;fillColor=none;top=0;left=0;bottom=0;right=0;points=[[0,0.5],[1,0.5]];portConstraint=eastwest;" parent="piiGVLoHhksso8CYTRYM-20" vertex="1">
                    <mxGeometry y="30" width="573" height="40" as="geometry"/>
                </mxCell>
                <mxCell id="YvzN3JrjDwVjsz09u-Xr-1" value="Get all member" style="shape=partialRectangle;html=1;whiteSpace=wrap;connectable=0;fillColor=none;top=0;left=0;bottom=0;right=0;overflow=hidden;pointerEvents=1;fontSize=15;" parent="YvzN3JrjDwVjsz09u-Xr-0" vertex="1">
                    <mxGeometry width="93" height="40" as="geometry">
                        <mxRectangle width="93" height="40" as="alternateBounds"/>
                    </mxGeometry>
                </mxCell>
                <mxCell id="YvzN3JrjDwVjsz09u-Xr-2" value="GET" style="shape=partialRectangle;html=1;whiteSpace=wrap;connectable=0;fillColor=none;top=0;left=0;bottom=0;right=0;overflow=hidden;pointerEvents=1;fontSize=15;" parent="YvzN3JrjDwVjsz09u-Xr-0" vertex="1">
                    <mxGeometry x="93" width="93" height="40" as="geometry">
                        <mxRectangle width="93" height="40" as="alternateBounds"/>
                    </mxGeometry>
                </mxCell>
                <mxCell id="YvzN3JrjDwVjsz09u-Xr-3" value="&lt;span&gt;/api/group/:todoId&lt;/span&gt;" style="shape=partialRectangle;html=1;whiteSpace=wrap;connectable=0;fillColor=none;top=0;left=0;bottom=0;right=0;overflow=hidden;pointerEvents=1;fontSize=15;" parent="YvzN3JrjDwVjsz09u-Xr-0" vertex="1">
                    <mxGeometry x="186" width="167" height="40" as="geometry">
                        <mxRectangle width="167" height="40" as="alternateBounds"/>
                    </mxGeometry>
                </mxCell>
                <mxCell id="YvzN3JrjDwVjsz09u-Xr-4" value="-" style="shape=partialRectangle;html=1;whiteSpace=wrap;connectable=0;fillColor=none;top=0;left=0;bottom=0;right=0;overflow=hidden;pointerEvents=1;fontSize=15;" parent="YvzN3JrjDwVjsz09u-Xr-0" vertex="1">
                    <mxGeometry x="353" width="220" height="40" as="geometry">
                        <mxRectangle width="220" height="40" as="alternateBounds"/>
                    </mxGeometry>
                </mxCell>
                <mxCell id="piiGVLoHhksso8CYTRYM-21" value="" style="shape=partialRectangle;html=1;whiteSpace=wrap;collapsible=0;dropTarget=0;pointerEvents=0;fillColor=none;top=0;left=0;bottom=0;right=0;points=[[0,0.5],[1,0.5]];portConstraint=eastwest;" parent="piiGVLoHhksso8CYTRYM-20" vertex="1">
                    <mxGeometry y="70" width="573" height="40" as="geometry"/>
                </mxCell>
                <mxCell id="piiGVLoHhksso8CYTRYM-22" value="Add new member" style="shape=partialRectangle;html=1;whiteSpace=wrap;connectable=0;fillColor=none;top=0;left=0;bottom=0;right=0;overflow=hidden;pointerEvents=1;fontSize=15;" parent="piiGVLoHhksso8CYTRYM-21" vertex="1">
                    <mxGeometry width="93" height="40" as="geometry">
                        <mxRectangle width="93" height="40" as="alternateBounds"/>
                    </mxGeometry>
                </mxCell>
                <mxCell id="piiGVLoHhksso8CYTRYM-23" value="POST" style="shape=partialRectangle;html=1;whiteSpace=wrap;connectable=0;fillColor=none;top=0;left=0;bottom=0;right=0;overflow=hidden;pointerEvents=1;fontSize=15;" parent="piiGVLoHhksso8CYTRYM-21" vertex="1">
                    <mxGeometry x="93" width="93" height="40" as="geometry">
                        <mxRectangle width="93" height="40" as="alternateBounds"/>
                    </mxGeometry>
                </mxCell>
                <mxCell id="piiGVLoHhksso8CYTRYM-24" value="/api/group/:todoId" style="shape=partialRectangle;html=1;whiteSpace=wrap;connectable=0;fillColor=none;top=0;left=0;bottom=0;right=0;overflow=hidden;pointerEvents=1;fontSize=15;" parent="piiGVLoHhksso8CYTRYM-21" vertex="1">
                    <mxGeometry x="186" width="167" height="40" as="geometry">
                        <mxRectangle width="167" height="40" as="alternateBounds"/>
                    </mxGeometry>
                </mxCell>
                <mxCell id="piiGVLoHhksso8CYTRYM-25" value="{userId: string}" style="shape=partialRectangle;html=1;whiteSpace=wrap;connectable=0;fillColor=none;top=0;left=0;bottom=0;right=0;overflow=hidden;pointerEvents=1;fontSize=15;" parent="piiGVLoHhksso8CYTRYM-21" vertex="1">
                    <mxGeometry x="353" width="220" height="40" as="geometry">
                        <mxRectangle width="220" height="40" as="alternateBounds"/>
                    </mxGeometry>
                </mxCell>
                <mxCell id="piiGVLoHhksso8CYTRYM-26" value="" style="shape=partialRectangle;html=1;whiteSpace=wrap;collapsible=0;dropTarget=0;pointerEvents=0;fillColor=none;top=0;left=0;bottom=0;right=0;points=[[0,0.5],[1,0.5]];portConstraint=eastwest;" parent="piiGVLoHhksso8CYTRYM-20" vertex="1">
                    <mxGeometry y="110" width="573" height="40" as="geometry"/>
                </mxCell>
                <mxCell id="piiGVLoHhksso8CYTRYM-27" value="Delete member" style="shape=partialRectangle;html=1;whiteSpace=wrap;connectable=0;fillColor=none;top=0;left=0;bottom=0;right=0;overflow=hidden;pointerEvents=1;fontSize=15;" parent="piiGVLoHhksso8CYTRYM-26" vertex="1">
                    <mxGeometry width="93" height="40" as="geometry">
                        <mxRectangle width="93" height="40" as="alternateBounds"/>
                    </mxGeometry>
                </mxCell>
                <mxCell id="piiGVLoHhksso8CYTRYM-28" value="DELETE" style="shape=partialRectangle;html=1;whiteSpace=wrap;connectable=0;fillColor=none;top=0;left=0;bottom=0;right=0;overflow=hidden;pointerEvents=1;fontSize=15;" parent="piiGVLoHhksso8CYTRYM-26" vertex="1">
                    <mxGeometry x="93" width="93" height="40" as="geometry">
                        <mxRectangle width="93" height="40" as="alternateBounds"/>
                    </mxGeometry>
                </mxCell>
                <mxCell id="piiGVLoHhksso8CYTRYM-29" value="/api/group/:todoId" style="shape=partialRectangle;html=1;whiteSpace=wrap;connectable=0;fillColor=none;top=0;left=0;bottom=0;right=0;overflow=hidden;pointerEvents=1;fontSize=15;" parent="piiGVLoHhksso8CYTRYM-26" vertex="1">
                    <mxGeometry x="186" width="167" height="40" as="geometry">
                        <mxRectangle width="167" height="40" as="alternateBounds"/>
                    </mxGeometry>
                </mxCell>
                <mxCell id="piiGVLoHhksso8CYTRYM-30" value="{userId: string}" style="shape=partialRectangle;html=1;whiteSpace=wrap;connectable=0;fillColor=none;top=0;left=0;bottom=0;right=0;overflow=hidden;pointerEvents=1;fontSize=15;" parent="piiGVLoHhksso8CYTRYM-26" vertex="1">
                    <mxGeometry x="353" width="220" height="40" as="geometry">
                        <mxRectangle width="220" height="40" as="alternateBounds"/>
                    </mxGeometry>
                </mxCell>
                <mxCell id="25cto-z_pGGvBRUPymMC-33" value="auth" style="swimlane;shadow=0;fontSize=18;fillColor=default;gradientColor=#ffffff;" parent="o2rCxQrs2q715OUxCT-L-1" vertex="1">
                    <mxGeometry x="40" y="40" width="240" height="220" as="geometry">
                        <mxRectangle x="100" y="310" width="190" height="30" as="alternateBounds"/>
                    </mxGeometry>
                </mxCell>
                <mxCell id="o2rCxQrs2q715OUxCT-L-52" value="User" style="shape=table;startSize=30;container=1;collapsible=0;childLayout=tableLayout;fontStyle=1;align=center;pointerEvents=1;rounded=0;shadow=0;sketch=0;fontSize=20;swimlaneFillColor=none;labelBackgroundColor=none;labelBorderColor=none;" parent="25cto-z_pGGvBRUPymMC-33" vertex="1">
                    <mxGeometry x="25" y="39.5" width="190" height="123" as="geometry"/>
                </mxCell>
                <mxCell id="o2rCxQrs2q715OUxCT-L-53" value="" style="shape=partialRectangle;whiteSpace=wrap;collapsible=0;dropTarget=0;pointerEvents=0;top=0;left=0;bottom=0;right=0;points=[[0,0.5],[1,0.5]];portConstraint=eastwest;rounded=0;shadow=0;sketch=0;fontSize=12;labelBackgroundColor=none;labelBorderColor=none;fillColor=#f5f5f5;fontColor=#333333;strokeColor=#666666;" parent="o2rCxQrs2q715OUxCT-L-52" vertex="1">
                    <mxGeometry y="30" width="190" height="47" as="geometry"/>
                </mxCell>
                <mxCell id="o2rCxQrs2q715OUxCT-L-65" value="email" style="shape=partialRectangle;whiteSpace=wrap;connectable=0;top=0;left=0;bottom=0;right=0;overflow=hidden;pointerEvents=1;rounded=0;shadow=0;sketch=0;fontSize=20;labelBackgroundColor=none;labelBorderColor=none;fillColor=#f5f5f5;fontColor=#333333;strokeColor=#666666;" parent="o2rCxQrs2q715OUxCT-L-53" vertex="1">
                    <mxGeometry width="90" height="47" as="geometry">
                        <mxRectangle width="90" height="47" as="alternateBounds"/>
                    </mxGeometry>
                </mxCell>
                <mxCell id="o2rCxQrs2q715OUxCT-L-54" value="string" style="shape=partialRectangle;whiteSpace=wrap;connectable=0;top=0;left=0;bottom=0;right=0;overflow=hidden;pointerEvents=1;rounded=0;shadow=0;sketch=0;fontSize=20;labelBackgroundColor=none;labelBorderColor=none;fillColor=#f5f5f5;fontColor=#333333;strokeColor=#666666;" parent="o2rCxQrs2q715OUxCT-L-53" vertex="1">
                    <mxGeometry x="90" width="100" height="47" as="geometry">
                        <mxRectangle width="100" height="47" as="alternateBounds"/>
                    </mxGeometry>
                </mxCell>
                <mxCell id="o2rCxQrs2q715OUxCT-L-57" value="" style="shape=partialRectangle;whiteSpace=wrap;collapsible=0;dropTarget=0;pointerEvents=0;top=0;left=0;bottom=0;right=0;points=[[0,0.5],[1,0.5]];portConstraint=eastwest;rounded=0;shadow=0;sketch=0;fontSize=12;labelBackgroundColor=none;labelBorderColor=none;fillColor=#f5f5f5;fontColor=#333333;strokeColor=#666666;" parent="o2rCxQrs2q715OUxCT-L-52" vertex="1">
                    <mxGeometry y="77" width="190" height="46" as="geometry"/>
                </mxCell>
                <mxCell id="o2rCxQrs2q715OUxCT-L-66" value="password" style="shape=partialRectangle;whiteSpace=wrap;connectable=0;top=0;left=0;bottom=0;right=0;overflow=hidden;pointerEvents=1;rounded=0;shadow=0;sketch=0;fontSize=20;labelBackgroundColor=none;labelBorderColor=none;fillColor=#f5f5f5;fontColor=#333333;strokeColor=#666666;" parent="o2rCxQrs2q715OUxCT-L-57" vertex="1">
                    <mxGeometry width="90" height="46" as="geometry">
                        <mxRectangle width="90" height="46" as="alternateBounds"/>
                    </mxGeometry>
                </mxCell>
                <mxCell id="o2rCxQrs2q715OUxCT-L-58" value="string" style="shape=partialRectangle;whiteSpace=wrap;connectable=0;top=0;left=0;bottom=0;right=0;overflow=hidden;pointerEvents=1;rounded=0;shadow=0;sketch=0;fontSize=20;labelBackgroundColor=none;labelBorderColor=none;fillColor=#f5f5f5;fontColor=#333333;strokeColor=#666666;" parent="o2rCxQrs2q715OUxCT-L-57" vertex="1">
                    <mxGeometry x="90" width="100" height="46" as="geometry">
                        <mxRectangle width="100" height="46" as="alternateBounds"/>
                    </mxGeometry>
                </mxCell>
                <mxCell id="25cto-z_pGGvBRUPymMC-34" value="Comment" style="swimlane;shadow=0;fontSize=18;fillColor=default;gradientColor=#ffffff;" parent="o2rCxQrs2q715OUxCT-L-1" vertex="1">
                    <mxGeometry x="550" y="40" width="260" height="240" as="geometry"/>
                </mxCell>
                <mxCell id="25cto-z_pGGvBRUPymMC-0" value="Comment" style="shape=table;startSize=30;container=1;collapsible=0;childLayout=tableLayout;fontStyle=1;align=center;pointerEvents=1;rounded=0;shadow=0;sketch=0;fontSize=20;swimlaneFillColor=none;labelBackgroundColor=none;labelBorderColor=none;fillColor=default;fontColor=default;strokeColor=default;" parent="25cto-z_pGGvBRUPymMC-34" vertex="1">
                    <mxGeometry x="25" y="39.5" width="210" height="180.5" as="geometry"/>
                </mxCell>
                <mxCell id="25cto-z_pGGvBRUPymMC-1" value="" style="shape=partialRectangle;whiteSpace=wrap;collapsible=0;dropTarget=0;pointerEvents=0;top=0;left=0;bottom=0;right=0;points=[[0,0.5],[1,0.5]];portConstraint=eastwest;rounded=0;shadow=0;sketch=0;fontSize=12;labelBackgroundColor=none;labelBorderColor=none;fillColor=#f5f5f5;fontColor=#333333;strokeColor=#666666;" parent="25cto-z_pGGvBRUPymMC-0" vertex="1">
                    <mxGeometry y="30" width="210" height="39" as="geometry"/>
                </mxCell>
                <mxCell id="25cto-z_pGGvBRUPymMC-2" value="todoId" style="shape=partialRectangle;whiteSpace=wrap;connectable=0;top=0;left=0;bottom=0;right=0;overflow=hidden;pointerEvents=1;rounded=0;shadow=0;sketch=0;fontSize=20;labelBackgroundColor=none;labelBorderColor=none;fillColor=#f5f5f5;fontColor=#333333;strokeColor=#666666;" parent="25cto-z_pGGvBRUPymMC-1" vertex="1">
                    <mxGeometry width="105" height="39" as="geometry">
                        <mxRectangle width="105" height="39" as="alternateBounds"/>
                    </mxGeometry>
                </mxCell>
                <mxCell id="25cto-z_pGGvBRUPymMC-3" value="string" style="shape=partialRectangle;whiteSpace=wrap;connectable=0;top=0;left=0;bottom=0;right=0;overflow=hidden;pointerEvents=1;rounded=0;shadow=0;sketch=0;fontSize=20;labelBackgroundColor=none;labelBorderColor=none;fillColor=#f5f5f5;fontColor=#333333;strokeColor=#666666;" parent="25cto-z_pGGvBRUPymMC-1" vertex="1">
                    <mxGeometry x="105" width="105" height="39" as="geometry">
                        <mxRectangle width="105" height="39" as="alternateBounds"/>
                    </mxGeometry>
                </mxCell>
                <mxCell id="25cto-z_pGGvBRUPymMC-26" style="shape=partialRectangle;whiteSpace=wrap;collapsible=0;dropTarget=0;pointerEvents=0;top=0;left=0;bottom=0;right=0;points=[[0,0.5],[1,0.5]];portConstraint=eastwest;rounded=0;shadow=0;sketch=0;fontSize=12;labelBackgroundColor=none;labelBorderColor=none;fillColor=#f5f5f5;fontColor=#333333;strokeColor=#666666;" parent="25cto-z_pGGvBRUPymMC-0" vertex="1">
                    <mxGeometry y="69" width="210" height="35" as="geometry"/>
                </mxCell>
                <mxCell id="25cto-z_pGGvBRUPymMC-27" value="userId" style="shape=partialRectangle;whiteSpace=wrap;connectable=0;top=0;left=0;bottom=0;right=0;overflow=hidden;pointerEvents=1;rounded=0;shadow=0;sketch=0;fontSize=20;labelBackgroundColor=none;labelBorderColor=none;fillColor=#f5f5f5;fontColor=#333333;strokeColor=#666666;" parent="25cto-z_pGGvBRUPymMC-26" vertex="1">
                    <mxGeometry width="105" height="35" as="geometry">
                        <mxRectangle width="105" height="35" as="alternateBounds"/>
                    </mxGeometry>
                </mxCell>
                <mxCell id="25cto-z_pGGvBRUPymMC-28" value="string" style="shape=partialRectangle;whiteSpace=wrap;connectable=0;top=0;left=0;bottom=0;right=0;overflow=hidden;pointerEvents=1;rounded=0;shadow=0;sketch=0;fontSize=20;labelBackgroundColor=none;labelBorderColor=none;fillColor=#f5f5f5;fontColor=#333333;strokeColor=#666666;" parent="25cto-z_pGGvBRUPymMC-26" vertex="1">
                    <mxGeometry x="105" width="105" height="35" as="geometry">
                        <mxRectangle width="105" height="35" as="alternateBounds"/>
                    </mxGeometry>
                </mxCell>
                <mxCell id="25cto-z_pGGvBRUPymMC-7" style="shape=partialRectangle;whiteSpace=wrap;collapsible=0;dropTarget=0;pointerEvents=0;top=0;left=0;bottom=0;right=0;points=[[0,0.5],[1,0.5]];portConstraint=eastwest;rounded=0;shadow=0;sketch=0;fontSize=12;labelBackgroundColor=none;labelBorderColor=none;fillColor=#f5f5f5;fontColor=#333333;strokeColor=#666666;" parent="25cto-z_pGGvBRUPymMC-0" vertex="1">
                    <mxGeometry y="104" width="210" height="42" as="geometry"/>
                </mxCell>
                <mxCell id="25cto-z_pGGvBRUPymMC-8" value="createdAt" style="shape=partialRectangle;whiteSpace=wrap;connectable=0;top=0;left=0;bottom=0;right=0;overflow=hidden;pointerEvents=1;rounded=0;shadow=0;sketch=0;fontSize=20;labelBackgroundColor=none;labelBorderColor=none;fillColor=#f5f5f5;fontColor=#333333;strokeColor=#666666;" parent="25cto-z_pGGvBRUPymMC-7" vertex="1">
                    <mxGeometry width="105" height="42" as="geometry">
                        <mxRectangle width="105" height="42" as="alternateBounds"/>
                    </mxGeometry>
                </mxCell>
                <mxCell id="25cto-z_pGGvBRUPymMC-9" value="string" style="shape=partialRectangle;whiteSpace=wrap;connectable=0;top=0;left=0;bottom=0;right=0;overflow=hidden;pointerEvents=1;rounded=0;shadow=0;sketch=0;fontSize=20;labelBackgroundColor=none;labelBorderColor=none;fillColor=#f5f5f5;fontColor=#333333;strokeColor=#666666;" parent="25cto-z_pGGvBRUPymMC-7" vertex="1">
                    <mxGeometry x="105" width="105" height="42" as="geometry">
                        <mxRectangle width="105" height="42" as="alternateBounds"/>
                    </mxGeometry>
                </mxCell>
                <mxCell id="25cto-z_pGGvBRUPymMC-4" value="" style="shape=partialRectangle;whiteSpace=wrap;collapsible=0;dropTarget=0;pointerEvents=0;top=0;left=0;bottom=0;right=0;points=[[0,0.5],[1,0.5]];portConstraint=eastwest;rounded=0;shadow=0;sketch=0;fontSize=12;labelBackgroundColor=none;labelBorderColor=none;fillColor=#f5f5f5;fontColor=#333333;strokeColor=#666666;" parent="25cto-z_pGGvBRUPymMC-0" vertex="1">
                    <mxGeometry y="146" width="210" height="34" as="geometry"/>
                </mxCell>
                <mxCell id="25cto-z_pGGvBRUPymMC-5" value="content" style="shape=partialRectangle;whiteSpace=wrap;connectable=0;top=0;left=0;bottom=0;right=0;overflow=hidden;pointerEvents=1;rounded=0;shadow=0;sketch=0;fontSize=20;labelBackgroundColor=none;labelBorderColor=none;fillColor=#f5f5f5;fontColor=#333333;strokeColor=#666666;" parent="25cto-z_pGGvBRUPymMC-4" vertex="1">
                    <mxGeometry width="105" height="34" as="geometry">
                        <mxRectangle width="105" height="34" as="alternateBounds"/>
                    </mxGeometry>
                </mxCell>
                <mxCell id="25cto-z_pGGvBRUPymMC-6" value="string" style="shape=partialRectangle;whiteSpace=wrap;connectable=0;top=0;left=0;bottom=0;right=0;overflow=hidden;pointerEvents=1;rounded=0;shadow=0;sketch=0;fontSize=20;labelBackgroundColor=none;labelBorderColor=none;fillColor=#f5f5f5;fontColor=#333333;strokeColor=#666666;" parent="25cto-z_pGGvBRUPymMC-4" vertex="1">
                    <mxGeometry x="105" width="105" height="34" as="geometry">
                        <mxRectangle width="105" height="34" as="alternateBounds"/>
                    </mxGeometry>
                </mxCell>
                <mxCell id="25cto-z_pGGvBRUPymMC-35" value="Todo" style="swimlane;shadow=0;fontSize=18;fillColor=default;gradientColor=#ffffff;" parent="o2rCxQrs2q715OUxCT-L-1" vertex="1">
                    <mxGeometry x="290" y="40" width="250" height="280" as="geometry"/>
                </mxCell>
                <mxCell id="o2rCxQrs2q715OUxCT-L-68" value="Todo" style="shape=table;startSize=30;container=1;collapsible=0;childLayout=tableLayout;fontStyle=1;align=center;pointerEvents=1;rounded=0;shadow=0;sketch=0;fontSize=20;swimlaneFillColor=none;labelBackgroundColor=none;labelBorderColor=none;fillColor=default;fontColor=default;strokeColor=default;" parent="25cto-z_pGGvBRUPymMC-35" vertex="1">
                    <mxGeometry x="19" y="39.5" width="210" height="218" as="geometry"/>
                </mxCell>
                <mxCell id="o2rCxQrs2q715OUxCT-L-69" value="" style="shape=partialRectangle;whiteSpace=wrap;collapsible=0;dropTarget=0;pointerEvents=0;top=0;left=0;bottom=0;right=0;points=[[0,0.5],[1,0.5]];portConstraint=eastwest;rounded=0;shadow=0;sketch=0;fontSize=12;labelBackgroundColor=none;labelBorderColor=none;fillColor=#f5f5f5;fontColor=#333333;strokeColor=#666666;" parent="o2rCxQrs2q715OUxCT-L-68" vertex="1">
                    <mxGeometry y="30" width="210" height="39" as="geometry"/>
                </mxCell>
                <mxCell id="o2rCxQrs2q715OUxCT-L-70" value="title" style="shape=partialRectangle;whiteSpace=wrap;connectable=0;top=0;left=0;bottom=0;right=0;overflow=hidden;pointerEvents=1;rounded=0;shadow=0;sketch=0;fontSize=20;labelBackgroundColor=none;labelBorderColor=none;fillColor=#f5f5f5;fontColor=#333333;strokeColor=#666666;" parent="o2rCxQrs2q715OUxCT-L-69" vertex="1">
                    <mxGeometry width="105" height="39" as="geometry">
                        <mxRectangle width="105" height="39" as="alternateBounds"/>
                    </mxGeometry>
                </mxCell>
                <mxCell id="o2rCxQrs2q715OUxCT-L-71" value="string" style="shape=partialRectangle;whiteSpace=wrap;connectable=0;top=0;left=0;bottom=0;right=0;overflow=hidden;pointerEvents=1;rounded=0;shadow=0;sketch=0;fontSize=20;labelBackgroundColor=none;labelBorderColor=none;fillColor=#f5f5f5;fontColor=#333333;strokeColor=#666666;" parent="o2rCxQrs2q715OUxCT-L-69" vertex="1">
                    <mxGeometry x="105" width="105" height="39" as="geometry">
                        <mxRectangle width="105" height="39" as="alternateBounds"/>
                    </mxGeometry>
                </mxCell>
                <mxCell id="o2rCxQrs2q715OUxCT-L-72" value="" style="shape=partialRectangle;whiteSpace=wrap;collapsible=0;dropTarget=0;pointerEvents=0;top=0;left=0;bottom=0;right=0;points=[[0,0.5],[1,0.5]];portConstraint=eastwest;rounded=0;shadow=0;sketch=0;fontSize=12;labelBackgroundColor=none;labelBorderColor=none;fillColor=#f5f5f5;fontColor=#333333;strokeColor=#666666;" parent="o2rCxQrs2q715OUxCT-L-68" vertex="1">
                    <mxGeometry y="69" width="210" height="35" as="geometry"/>
                </mxCell>
                <mxCell id="o2rCxQrs2q715OUxCT-L-73" value="content" style="shape=partialRectangle;whiteSpace=wrap;connectable=0;top=0;left=0;bottom=0;right=0;overflow=hidden;pointerEvents=1;rounded=0;shadow=0;sketch=0;fontSize=20;labelBackgroundColor=none;labelBorderColor=none;fillColor=#f5f5f5;fontColor=#333333;strokeColor=#666666;" parent="o2rCxQrs2q715OUxCT-L-72" vertex="1">
                    <mxGeometry width="105" height="35" as="geometry">
                        <mxRectangle width="105" height="35" as="alternateBounds"/>
                    </mxGeometry>
                </mxCell>
                <mxCell id="o2rCxQrs2q715OUxCT-L-74" value="string" style="shape=partialRectangle;whiteSpace=wrap;connectable=0;top=0;left=0;bottom=0;right=0;overflow=hidden;pointerEvents=1;rounded=0;shadow=0;sketch=0;fontSize=20;labelBackgroundColor=none;labelBorderColor=none;fillColor=#f5f5f5;fontColor=#333333;strokeColor=#666666;" parent="o2rCxQrs2q715OUxCT-L-72" vertex="1">
                    <mxGeometry x="105" width="105" height="35" as="geometry">
                        <mxRectangle width="105" height="35" as="alternateBounds"/>
                    </mxGeometry>
                </mxCell>
                <mxCell id="o2rCxQrs2q715OUxCT-L-75" style="shape=partialRectangle;whiteSpace=wrap;collapsible=0;dropTarget=0;pointerEvents=0;top=0;left=0;bottom=0;right=0;points=[[0,0.5],[1,0.5]];portConstraint=eastwest;rounded=0;shadow=0;sketch=0;fontSize=12;labelBackgroundColor=none;labelBorderColor=none;fillColor=#f5f5f5;fontColor=#333333;strokeColor=#666666;" parent="o2rCxQrs2q715OUxCT-L-68" vertex="1">
                    <mxGeometry y="104" width="210" height="38" as="geometry"/>
                </mxCell>
                <mxCell id="o2rCxQrs2q715OUxCT-L-76" value="userId" style="shape=partialRectangle;whiteSpace=wrap;connectable=0;top=0;left=0;bottom=0;right=0;overflow=hidden;pointerEvents=1;rounded=0;shadow=0;sketch=0;fontSize=20;labelBackgroundColor=none;labelBorderColor=none;fillColor=#f5f5f5;fontColor=#333333;strokeColor=#666666;" parent="o2rCxQrs2q715OUxCT-L-75" vertex="1">
                    <mxGeometry width="105" height="38" as="geometry">
                        <mxRectangle width="105" height="38" as="alternateBounds"/>
                    </mxGeometry>
                </mxCell>
                <mxCell id="o2rCxQrs2q715OUxCT-L-77" value="string" style="shape=partialRectangle;whiteSpace=wrap;connectable=0;top=0;left=0;bottom=0;right=0;overflow=hidden;pointerEvents=1;rounded=0;shadow=0;sketch=0;fontSize=20;labelBackgroundColor=none;labelBorderColor=none;fillColor=#f5f5f5;fontColor=#333333;strokeColor=#666666;" parent="o2rCxQrs2q715OUxCT-L-75" vertex="1">
                    <mxGeometry x="105" width="105" height="38" as="geometry">
                        <mxRectangle width="105" height="38" as="alternateBounds"/>
                    </mxGeometry>
                </mxCell>
                <mxCell id="piiGVLoHhksso8CYTRYM-14" style="shape=partialRectangle;whiteSpace=wrap;collapsible=0;dropTarget=0;pointerEvents=0;top=0;left=0;bottom=0;right=0;points=[[0,0.5],[1,0.5]];portConstraint=eastwest;rounded=0;shadow=0;sketch=0;fontSize=12;labelBackgroundColor=none;labelBorderColor=none;fillColor=#f5f5f5;fontColor=#333333;strokeColor=#666666;" parent="o2rCxQrs2q715OUxCT-L-68" vertex="1">
                    <mxGeometry y="142" width="210" height="38" as="geometry"/>
                </mxCell>
                <mxCell id="piiGVLoHhksso8CYTRYM-15" value="userEmail" style="shape=partialRectangle;whiteSpace=wrap;connectable=0;top=0;left=0;bottom=0;right=0;overflow=hidden;pointerEvents=1;rounded=0;shadow=0;sketch=0;fontSize=20;labelBackgroundColor=none;labelBorderColor=none;fillColor=#f5f5f5;fontColor=#333333;strokeColor=#666666;" parent="piiGVLoHhksso8CYTRYM-14" vertex="1">
                    <mxGeometry width="105" height="38" as="geometry">
                        <mxRectangle width="105" height="38" as="alternateBounds"/>
                    </mxGeometry>
                </mxCell>
                <mxCell id="piiGVLoHhksso8CYTRYM-16" value="string" style="shape=partialRectangle;whiteSpace=wrap;connectable=0;top=0;left=0;bottom=0;right=0;overflow=hidden;pointerEvents=1;rounded=0;shadow=0;sketch=0;fontSize=20;labelBackgroundColor=none;labelBorderColor=none;fillColor=#f5f5f5;fontColor=#333333;strokeColor=#666666;" parent="piiGVLoHhksso8CYTRYM-14" vertex="1">
                    <mxGeometry x="105" width="105" height="38" as="geometry">
                        <mxRectangle width="105" height="38" as="alternateBounds"/>
                    </mxGeometry>
                </mxCell>
                <mxCell id="piiGVLoHhksso8CYTRYM-17" style="shape=partialRectangle;whiteSpace=wrap;collapsible=0;dropTarget=0;pointerEvents=0;top=0;left=0;bottom=0;right=0;points=[[0,0.5],[1,0.5]];portConstraint=eastwest;rounded=0;shadow=0;sketch=0;fontSize=12;labelBackgroundColor=none;labelBorderColor=none;fillColor=#f5f5f5;fontColor=#333333;strokeColor=#666666;" parent="o2rCxQrs2q715OUxCT-L-68" vertex="1">
                    <mxGeometry y="180" width="210" height="38" as="geometry"/>
                </mxCell>
                <mxCell id="piiGVLoHhksso8CYTRYM-18" value="createdAt" style="shape=partialRectangle;whiteSpace=wrap;connectable=0;top=0;left=0;bottom=0;right=0;overflow=hidden;pointerEvents=1;rounded=0;shadow=0;sketch=0;fontSize=20;labelBackgroundColor=none;labelBorderColor=none;fillColor=#f5f5f5;fontColor=#333333;strokeColor=#666666;" parent="piiGVLoHhksso8CYTRYM-17" vertex="1">
                    <mxGeometry width="105" height="38" as="geometry">
                        <mxRectangle width="105" height="38" as="alternateBounds"/>
                    </mxGeometry>
                </mxCell>
                <mxCell id="piiGVLoHhksso8CYTRYM-19" value="string" style="shape=partialRectangle;whiteSpace=wrap;connectable=0;top=0;left=0;bottom=0;right=0;overflow=hidden;pointerEvents=1;rounded=0;shadow=0;sketch=0;fontSize=20;labelBackgroundColor=none;labelBorderColor=none;fillColor=#f5f5f5;fontColor=#333333;strokeColor=#666666;" parent="piiGVLoHhksso8CYTRYM-17" vertex="1">
                    <mxGeometry x="105" width="105" height="38" as="geometry">
                        <mxRectangle width="105" height="38" as="alternateBounds"/>
                    </mxGeometry>
                </mxCell>
                <mxCell id="25cto-z_pGGvBRUPymMC-36" value="Query" style="swimlane;shadow=0;fontSize=18;fillColor=default;gradientColor=#ffffff;" parent="o2rCxQrs2q715OUxCT-L-1" vertex="1">
                    <mxGeometry x="820" y="40" width="350" height="320" as="geometry">
                        <mxRectangle x="820" y="40" width="80" height="30" as="alternateBounds"/>
                    </mxGeometry>
                </mxCell>
                <mxCell id="25cto-z_pGGvBRUPymMC-37" value="Todo" style="shape=table;startSize=30;container=1;collapsible=0;childLayout=tableLayout;fontStyle=1;align=center;pointerEvents=1;rounded=0;shadow=0;sketch=0;fontSize=20;swimlaneFillColor=none;labelBackgroundColor=none;labelBorderColor=none;fillColor=default;fontColor=default;strokeColor=default;" parent="25cto-z_pGGvBRUPymMC-36" vertex="1">
                    <mxGeometry x="50" y="39.5" width="250" height="256" as="geometry"/>
                </mxCell>
                <mxCell id="25cto-z_pGGvBRUPymMC-38" value="" style="shape=partialRectangle;whiteSpace=wrap;collapsible=0;dropTarget=0;pointerEvents=0;top=0;left=0;bottom=0;right=0;points=[[0,0.5],[1,0.5]];portConstraint=eastwest;rounded=0;shadow=0;sketch=0;fontSize=12;labelBackgroundColor=none;labelBorderColor=none;fillColor=#f5f5f5;fontColor=#333333;strokeColor=#666666;" parent="25cto-z_pGGvBRUPymMC-37" vertex="1">
                    <mxGeometry y="30" width="250" height="39" as="geometry"/>
                </mxCell>
                <mxCell id="25cto-z_pGGvBRUPymMC-39" value="title" style="shape=partialRectangle;whiteSpace=wrap;connectable=0;top=0;left=0;bottom=0;right=0;overflow=hidden;pointerEvents=1;rounded=0;shadow=0;sketch=0;fontSize=20;labelBackgroundColor=none;labelBorderColor=none;fillColor=#f5f5f5;fontColor=#333333;strokeColor=#666666;" parent="25cto-z_pGGvBRUPymMC-38" vertex="1">
                    <mxGeometry width="125" height="39" as="geometry">
                        <mxRectangle width="125" height="39" as="alternateBounds"/>
                    </mxGeometry>
                </mxCell>
                <mxCell id="25cto-z_pGGvBRUPymMC-40" value="string" style="shape=partialRectangle;whiteSpace=wrap;connectable=0;top=0;left=0;bottom=0;right=0;overflow=hidden;pointerEvents=1;rounded=0;shadow=0;sketch=0;fontSize=20;labelBackgroundColor=none;labelBorderColor=none;fillColor=#f5f5f5;fontColor=#333333;strokeColor=#666666;" parent="25cto-z_pGGvBRUPymMC-38" vertex="1">
                    <mxGeometry x="125" width="125" height="39" as="geometry">
                        <mxRectangle width="125" height="39" as="alternateBounds"/>
                    </mxGeometry>
                </mxCell>
                <mxCell id="25cto-z_pGGvBRUPymMC-41" value="" style="shape=partialRectangle;whiteSpace=wrap;collapsible=0;dropTarget=0;pointerEvents=0;top=0;left=0;bottom=0;right=0;points=[[0,0.5],[1,0.5]];portConstraint=eastwest;rounded=0;shadow=0;sketch=0;fontSize=12;labelBackgroundColor=none;labelBorderColor=none;fillColor=#f5f5f5;fontColor=#333333;strokeColor=#666666;" parent="25cto-z_pGGvBRUPymMC-37" vertex="1">
                    <mxGeometry y="69" width="250" height="35" as="geometry"/>
                </mxCell>
                <mxCell id="25cto-z_pGGvBRUPymMC-42" value="content" style="shape=partialRectangle;whiteSpace=wrap;connectable=0;top=0;left=0;bottom=0;right=0;overflow=hidden;pointerEvents=1;rounded=0;shadow=0;sketch=0;fontSize=20;labelBackgroundColor=none;labelBorderColor=none;fillColor=#f5f5f5;fontColor=#333333;strokeColor=#666666;" parent="25cto-z_pGGvBRUPymMC-41" vertex="1">
                    <mxGeometry width="125" height="35" as="geometry">
                        <mxRectangle width="125" height="35" as="alternateBounds"/>
                    </mxGeometry>
                </mxCell>
                <mxCell id="25cto-z_pGGvBRUPymMC-43" value="string" style="shape=partialRectangle;whiteSpace=wrap;connectable=0;top=0;left=0;bottom=0;right=0;overflow=hidden;pointerEvents=1;rounded=0;shadow=0;sketch=0;fontSize=20;labelBackgroundColor=none;labelBorderColor=none;fillColor=#f5f5f5;fontColor=#333333;strokeColor=#666666;" parent="25cto-z_pGGvBRUPymMC-41" vertex="1">
                    <mxGeometry x="125" width="125" height="35" as="geometry">
                        <mxRectangle width="125" height="35" as="alternateBounds"/>
                    </mxGeometry>
                </mxCell>
                <mxCell id="25cto-z_pGGvBRUPymMC-44" style="shape=partialRectangle;whiteSpace=wrap;collapsible=0;dropTarget=0;pointerEvents=0;top=0;left=0;bottom=0;right=0;points=[[0,0.5],[1,0.5]];portConstraint=eastwest;rounded=0;shadow=0;sketch=0;fontSize=12;labelBackgroundColor=none;labelBorderColor=none;fillColor=#f5f5f5;fontColor=#333333;strokeColor=#666666;" parent="25cto-z_pGGvBRUPymMC-37" vertex="1">
                    <mxGeometry y="104" width="250" height="38" as="geometry"/>
                </mxCell>
                <mxCell id="25cto-z_pGGvBRUPymMC-45" value="userId" style="shape=partialRectangle;whiteSpace=wrap;connectable=0;top=0;left=0;bottom=0;right=0;overflow=hidden;pointerEvents=1;rounded=0;shadow=0;sketch=0;fontSize=20;labelBackgroundColor=none;labelBorderColor=none;fillColor=#f5f5f5;fontColor=#333333;strokeColor=#666666;" parent="25cto-z_pGGvBRUPymMC-44" vertex="1">
                    <mxGeometry width="125" height="38" as="geometry">
                        <mxRectangle width="125" height="38" as="alternateBounds"/>
                    </mxGeometry>
                </mxCell>
                <mxCell id="25cto-z_pGGvBRUPymMC-46" value="string" style="shape=partialRectangle;whiteSpace=wrap;connectable=0;top=0;left=0;bottom=0;right=0;overflow=hidden;pointerEvents=1;rounded=0;shadow=0;sketch=0;fontSize=20;labelBackgroundColor=none;labelBorderColor=none;fillColor=#f5f5f5;fontColor=#333333;strokeColor=#666666;" parent="25cto-z_pGGvBRUPymMC-44" vertex="1">
                    <mxGeometry x="125" width="125" height="38" as="geometry">
                        <mxRectangle width="125" height="38" as="alternateBounds"/>
                    </mxGeometry>
                </mxCell>
                <mxCell id="25cto-z_pGGvBRUPymMC-47" style="shape=partialRectangle;whiteSpace=wrap;collapsible=0;dropTarget=0;pointerEvents=0;top=0;left=0;bottom=0;right=0;points=[[0,0.5],[1,0.5]];portConstraint=eastwest;rounded=0;shadow=0;sketch=0;fontSize=12;labelBackgroundColor=none;labelBorderColor=none;fillColor=#f5f5f5;fontColor=#333333;strokeColor=#666666;" parent="25cto-z_pGGvBRUPymMC-37" vertex="1">
                    <mxGeometry y="142" width="250" height="38" as="geometry"/>
                </mxCell>
                <mxCell id="25cto-z_pGGvBRUPymMC-48" value="userEmail" style="shape=partialRectangle;whiteSpace=wrap;connectable=0;top=0;left=0;bottom=0;right=0;overflow=hidden;pointerEvents=1;rounded=0;shadow=0;sketch=0;fontSize=20;labelBackgroundColor=none;labelBorderColor=none;fillColor=#f5f5f5;fontColor=#333333;strokeColor=#666666;" parent="25cto-z_pGGvBRUPymMC-47" vertex="1">
                    <mxGeometry width="125" height="38" as="geometry">
                        <mxRectangle width="125" height="38" as="alternateBounds"/>
                    </mxGeometry>
                </mxCell>
                <mxCell id="25cto-z_pGGvBRUPymMC-49" value="string" style="shape=partialRectangle;whiteSpace=wrap;connectable=0;top=0;left=0;bottom=0;right=0;overflow=hidden;pointerEvents=1;rounded=0;shadow=0;sketch=0;fontSize=20;labelBackgroundColor=none;labelBorderColor=none;fillColor=#f5f5f5;fontColor=#333333;strokeColor=#666666;" parent="25cto-z_pGGvBRUPymMC-47" vertex="1">
                    <mxGeometry x="125" width="125" height="38" as="geometry">
                        <mxRectangle width="125" height="38" as="alternateBounds"/>
                    </mxGeometry>
                </mxCell>
                <mxCell id="25cto-z_pGGvBRUPymMC-50" style="shape=partialRectangle;whiteSpace=wrap;collapsible=0;dropTarget=0;pointerEvents=0;top=0;left=0;bottom=0;right=0;points=[[0,0.5],[1,0.5]];portConstraint=eastwest;rounded=0;shadow=0;sketch=0;fontSize=12;labelBackgroundColor=none;labelBorderColor=none;fillColor=#f5f5f5;fontColor=#333333;strokeColor=#666666;" parent="25cto-z_pGGvBRUPymMC-37" vertex="1">
                    <mxGeometry y="180" width="250" height="38" as="geometry"/>
                </mxCell>
                <mxCell id="25cto-z_pGGvBRUPymMC-51" value="createdAt" style="shape=partialRectangle;whiteSpace=wrap;connectable=0;top=0;left=0;bottom=0;right=0;overflow=hidden;pointerEvents=1;rounded=0;shadow=0;sketch=0;fontSize=20;labelBackgroundColor=none;labelBorderColor=none;fillColor=#f5f5f5;fontColor=#333333;strokeColor=#666666;" parent="25cto-z_pGGvBRUPymMC-50" vertex="1">
                    <mxGeometry width="125" height="38" as="geometry">
                        <mxRectangle width="125" height="38" as="alternateBounds"/>
                    </mxGeometry>
                </mxCell>
                <mxCell id="25cto-z_pGGvBRUPymMC-52" value="string" style="shape=partialRectangle;whiteSpace=wrap;connectable=0;top=0;left=0;bottom=0;right=0;overflow=hidden;pointerEvents=1;rounded=0;shadow=0;sketch=0;fontSize=20;labelBackgroundColor=none;labelBorderColor=none;fillColor=#f5f5f5;fontColor=#333333;strokeColor=#666666;" parent="25cto-z_pGGvBRUPymMC-50" vertex="1">
                    <mxGeometry x="125" width="125" height="38" as="geometry">
                        <mxRectangle width="125" height="38" as="alternateBounds"/>
                    </mxGeometry>
                </mxCell>
                <mxCell id="25cto-z_pGGvBRUPymMC-53" style="shape=partialRectangle;whiteSpace=wrap;collapsible=0;dropTarget=0;pointerEvents=0;top=0;left=0;bottom=0;right=0;points=[[0,0.5],[1,0.5]];portConstraint=eastwest;rounded=0;shadow=0;sketch=0;fontSize=12;labelBackgroundColor=none;labelBorderColor=none;fillColor=#f5f5f5;fontColor=#333333;strokeColor=#666666;" parent="25cto-z_pGGvBRUPymMC-37" vertex="1">
                    <mxGeometry y="218" width="250" height="38" as="geometry"/>
                </mxCell>
                <mxCell id="25cto-z_pGGvBRUPymMC-54" value="comments" style="shape=partialRectangle;whiteSpace=wrap;connectable=0;top=0;left=0;bottom=0;right=0;overflow=hidden;pointerEvents=1;rounded=0;shadow=0;sketch=0;fontSize=20;labelBackgroundColor=none;labelBorderColor=none;fillColor=#f5f5f5;fontColor=#333333;strokeColor=#666666;" parent="25cto-z_pGGvBRUPymMC-53" vertex="1">
                    <mxGeometry width="125" height="38" as="geometry">
                        <mxRectangle width="125" height="38" as="alternateBounds"/>
                    </mxGeometry>
                </mxCell>
                <mxCell id="25cto-z_pGGvBRUPymMC-55" value="array" style="shape=partialRectangle;whiteSpace=wrap;connectable=0;top=0;left=0;bottom=0;right=0;overflow=hidden;pointerEvents=1;rounded=0;shadow=0;sketch=0;fontSize=20;labelBackgroundColor=none;labelBorderColor=none;fillColor=#f5f5f5;fontColor=#333333;strokeColor=#666666;" parent="25cto-z_pGGvBRUPymMC-53" vertex="1">
                    <mxGeometry x="125" width="125" height="38" as="geometry">
                        <mxRectangle width="125" height="38" as="alternateBounds"/>
                    </mxGeometry>
                </mxCell>
                <mxCell id="25cto-z_pGGvBRUPymMC-57" value="Comment" style="shape=table;startSize=30;container=1;collapsible=0;childLayout=tableLayout;fontStyle=1;align=center;pointerEvents=1;rounded=0;shadow=0;sketch=0;fontSize=20;swimlaneFillColor=none;labelBackgroundColor=none;labelBorderColor=none;fillColor=default;fontColor=default;strokeColor=default;" parent="o2rCxQrs2q715OUxCT-L-1" vertex="1">
                    <mxGeometry x="1180" y="120" width="210" height="180.5" as="geometry"/>
                </mxCell>
                <mxCell id="25cto-z_pGGvBRUPymMC-58" value="" style="shape=partialRectangle;whiteSpace=wrap;collapsible=0;dropTarget=0;pointerEvents=0;top=0;left=0;bottom=0;right=0;points=[[0,0.5],[1,0.5]];portConstraint=eastwest;rounded=0;shadow=0;sketch=0;fontSize=12;labelBackgroundColor=none;labelBorderColor=none;fillColor=#f5f5f5;fontColor=#333333;strokeColor=#666666;" parent="25cto-z_pGGvBRUPymMC-57" vertex="1">
                    <mxGeometry y="30" width="210" height="39" as="geometry"/>
                </mxCell>
                <mxCell id="25cto-z_pGGvBRUPymMC-59" value="todoId" style="shape=partialRectangle;whiteSpace=wrap;connectable=0;top=0;left=0;bottom=0;right=0;overflow=hidden;pointerEvents=1;rounded=0;shadow=0;sketch=0;fontSize=20;labelBackgroundColor=none;labelBorderColor=none;fillColor=#f5f5f5;fontColor=#333333;strokeColor=#666666;" parent="25cto-z_pGGvBRUPymMC-58" vertex="1">
                    <mxGeometry width="105" height="39" as="geometry">
                        <mxRectangle width="105" height="39" as="alternateBounds"/>
                    </mxGeometry>
                </mxCell>
                <mxCell id="25cto-z_pGGvBRUPymMC-60" value="string" style="shape=partialRectangle;whiteSpace=wrap;connectable=0;top=0;left=0;bottom=0;right=0;overflow=hidden;pointerEvents=1;rounded=0;shadow=0;sketch=0;fontSize=20;labelBackgroundColor=none;labelBorderColor=none;fillColor=#f5f5f5;fontColor=#333333;strokeColor=#666666;" parent="25cto-z_pGGvBRUPymMC-58" vertex="1">
                    <mxGeometry x="105" width="105" height="39" as="geometry">
                        <mxRectangle width="105" height="39" as="alternateBounds"/>
                    </mxGeometry>
                </mxCell>
                <mxCell id="25cto-z_pGGvBRUPymMC-61" style="shape=partialRectangle;whiteSpace=wrap;collapsible=0;dropTarget=0;pointerEvents=0;top=0;left=0;bottom=0;right=0;points=[[0,0.5],[1,0.5]];portConstraint=eastwest;rounded=0;shadow=0;sketch=0;fontSize=12;labelBackgroundColor=none;labelBorderColor=none;fillColor=#f5f5f5;fontColor=#333333;strokeColor=#666666;" parent="25cto-z_pGGvBRUPymMC-57" vertex="1">
                    <mxGeometry y="69" width="210" height="42" as="geometry"/>
                </mxCell>
                <mxCell id="25cto-z_pGGvBRUPymMC-62" value="createdAt" style="shape=partialRectangle;whiteSpace=wrap;connectable=0;top=0;left=0;bottom=0;right=0;overflow=hidden;pointerEvents=1;rounded=0;shadow=0;sketch=0;fontSize=20;labelBackgroundColor=none;labelBorderColor=none;fillColor=#f5f5f5;fontColor=#333333;strokeColor=#666666;" parent="25cto-z_pGGvBRUPymMC-61" vertex="1">
                    <mxGeometry width="105" height="42" as="geometry">
                        <mxRectangle width="105" height="42" as="alternateBounds"/>
                    </mxGeometry>
                </mxCell>
                <mxCell id="25cto-z_pGGvBRUPymMC-63" value="string" style="shape=partialRectangle;whiteSpace=wrap;connectable=0;top=0;left=0;bottom=0;right=0;overflow=hidden;pointerEvents=1;rounded=0;shadow=0;sketch=0;fontSize=20;labelBackgroundColor=none;labelBorderColor=none;fillColor=#f5f5f5;fontColor=#333333;strokeColor=#666666;" parent="25cto-z_pGGvBRUPymMC-61" vertex="1">
                    <mxGeometry x="105" width="105" height="42" as="geometry">
                        <mxRectangle width="105" height="42" as="alternateBounds"/>
                    </mxGeometry>
                </mxCell>
                <mxCell id="25cto-z_pGGvBRUPymMC-64" style="shape=partialRectangle;whiteSpace=wrap;collapsible=0;dropTarget=0;pointerEvents=0;top=0;left=0;bottom=0;right=0;points=[[0,0.5],[1,0.5]];portConstraint=eastwest;rounded=0;shadow=0;sketch=0;fontSize=12;labelBackgroundColor=none;labelBorderColor=none;fillColor=#f5f5f5;fontColor=#333333;strokeColor=#666666;" parent="25cto-z_pGGvBRUPymMC-57" vertex="1">
                    <mxGeometry y="111" width="210" height="35" as="geometry"/>
                </mxCell>
                <mxCell id="25cto-z_pGGvBRUPymMC-65" value="userId" style="shape=partialRectangle;whiteSpace=wrap;connectable=0;top=0;left=0;bottom=0;right=0;overflow=hidden;pointerEvents=1;rounded=0;shadow=0;sketch=0;fontSize=20;labelBackgroundColor=none;labelBorderColor=none;fillColor=#f5f5f5;fontColor=#333333;strokeColor=#666666;" parent="25cto-z_pGGvBRUPymMC-64" vertex="1">
                    <mxGeometry width="105" height="35" as="geometry">
                        <mxRectangle width="105" height="35" as="alternateBounds"/>
                    </mxGeometry>
                </mxCell>
                <mxCell id="25cto-z_pGGvBRUPymMC-66" value="string" style="shape=partialRectangle;whiteSpace=wrap;connectable=0;top=0;left=0;bottom=0;right=0;overflow=hidden;pointerEvents=1;rounded=0;shadow=0;sketch=0;fontSize=20;labelBackgroundColor=none;labelBorderColor=none;fillColor=#f5f5f5;fontColor=#333333;strokeColor=#666666;" parent="25cto-z_pGGvBRUPymMC-64" vertex="1">
                    <mxGeometry x="105" width="105" height="35" as="geometry">
                        <mxRectangle width="105" height="35" as="alternateBounds"/>
                    </mxGeometry>
                </mxCell>
                <mxCell id="25cto-z_pGGvBRUPymMC-67" value="" style="shape=partialRectangle;whiteSpace=wrap;collapsible=0;dropTarget=0;pointerEvents=0;top=0;left=0;bottom=0;right=0;points=[[0,0.5],[1,0.5]];portConstraint=eastwest;rounded=0;shadow=0;sketch=0;fontSize=12;labelBackgroundColor=none;labelBorderColor=none;fillColor=#f5f5f5;fontColor=#333333;strokeColor=#666666;" parent="25cto-z_pGGvBRUPymMC-57" vertex="1">
                    <mxGeometry y="146" width="210" height="34" as="geometry"/>
                </mxCell>
                <mxCell id="25cto-z_pGGvBRUPymMC-68" value="content" style="shape=partialRectangle;whiteSpace=wrap;connectable=0;top=0;left=0;bottom=0;right=0;overflow=hidden;pointerEvents=1;rounded=0;shadow=0;sketch=0;fontSize=20;labelBackgroundColor=none;labelBorderColor=none;fillColor=#f5f5f5;fontColor=#333333;strokeColor=#666666;" parent="25cto-z_pGGvBRUPymMC-67" vertex="1">
                    <mxGeometry width="105" height="34" as="geometry">
                        <mxRectangle width="105" height="34" as="alternateBounds"/>
                    </mxGeometry>
                </mxCell>
                <mxCell id="25cto-z_pGGvBRUPymMC-69" value="string" style="shape=partialRectangle;whiteSpace=wrap;connectable=0;top=0;left=0;bottom=0;right=0;overflow=hidden;pointerEvents=1;rounded=0;shadow=0;sketch=0;fontSize=20;labelBackgroundColor=none;labelBorderColor=none;fillColor=#f5f5f5;fontColor=#333333;strokeColor=#666666;" parent="25cto-z_pGGvBRUPymMC-67" vertex="1">
                    <mxGeometry x="105" width="105" height="34" as="geometry">
                        <mxRectangle width="105" height="34" as="alternateBounds"/>
                    </mxGeometry>
                </mxCell>
                <mxCell id="25cto-z_pGGvBRUPymMC-70" style="edgeStyle=none;html=1;entryX=0.5;entryY=1;entryDx=0;entryDy=0;fontSize=18;" parent="o2rCxQrs2q715OUxCT-L-1" source="25cto-z_pGGvBRUPymMC-53" target="25cto-z_pGGvBRUPymMC-57" edge="1">
                    <mxGeometry relative="1" as="geometry">
                        <Array as="points">
                            <mxPoint x="1285" y="317"/>
                        </Array>
                    </mxGeometry>
                </mxCell>
                <mxCell id="25cto-z_pGGvBRUPymMC-71" value="comment" style="shape=table;startSize=30;container=1;collapsible=0;childLayout=tableLayout;fontStyle=1;align=center;pointerEvents=1;" parent="o2rCxQrs2q715OUxCT-L-1" vertex="1">
                    <mxGeometry x="80" y="840" width="573" height="170" as="geometry"/>
                </mxCell>
                <mxCell id="25cto-z_pGGvBRUPymMC-82" value="" style="shape=partialRectangle;html=1;whiteSpace=wrap;collapsible=0;dropTarget=0;pointerEvents=0;fillColor=none;top=0;left=0;bottom=0;right=0;points=[[0,0.5],[1,0.5]];portConstraint=eastwest;" parent="25cto-z_pGGvBRUPymMC-71" vertex="1">
                    <mxGeometry y="30" width="573" height="40" as="geometry"/>
                </mxCell>
                <mxCell id="25cto-z_pGGvBRUPymMC-83" value="get&lt;br&gt;comment" style="shape=partialRectangle;html=1;whiteSpace=wrap;connectable=0;fillColor=none;top=0;left=0;bottom=0;right=0;overflow=hidden;pointerEvents=1;fontSize=15;" parent="25cto-z_pGGvBRUPymMC-82" vertex="1">
                    <mxGeometry width="93" height="40" as="geometry">
                        <mxRectangle width="93" height="40" as="alternateBounds"/>
                    </mxGeometry>
                </mxCell>
                <mxCell id="25cto-z_pGGvBRUPymMC-84" value="GET" style="shape=partialRectangle;html=1;whiteSpace=wrap;connectable=0;fillColor=none;top=0;left=0;bottom=0;right=0;overflow=hidden;pointerEvents=1;fontSize=15;" parent="25cto-z_pGGvBRUPymMC-82" vertex="1">
                    <mxGeometry x="93" width="93" height="40" as="geometry">
                        <mxRectangle width="93" height="40" as="alternateBounds"/>
                    </mxGeometry>
                </mxCell>
                <mxCell id="25cto-z_pGGvBRUPymMC-85" value="&lt;span&gt;/api/todo/:todoId/comment&lt;/span&gt;" style="shape=partialRectangle;html=1;whiteSpace=wrap;connectable=0;fillColor=none;top=0;left=0;bottom=0;right=0;overflow=hidden;pointerEvents=1;fontSize=15;" parent="25cto-z_pGGvBRUPymMC-82" vertex="1">
                    <mxGeometry x="186" width="274" height="40" as="geometry">
                        <mxRectangle width="274" height="40" as="alternateBounds"/>
                    </mxGeometry>
                </mxCell>
                <mxCell id="25cto-z_pGGvBRUPymMC-86" value="" style="shape=partialRectangle;html=1;whiteSpace=wrap;connectable=0;fillColor=none;top=0;left=0;bottom=0;right=0;overflow=hidden;pointerEvents=1;fontSize=15;" parent="25cto-z_pGGvBRUPymMC-82" vertex="1">
                    <mxGeometry x="460" width="113" height="40" as="geometry">
                        <mxRectangle width="113" height="40" as="alternateBounds"/>
                    </mxGeometry>
                </mxCell>
                <mxCell id="25cto-z_pGGvBRUPymMC-72" value="" style="shape=partialRectangle;html=1;whiteSpace=wrap;collapsible=0;dropTarget=0;pointerEvents=0;fillColor=none;top=0;left=0;bottom=0;right=0;points=[[0,0.5],[1,0.5]];portConstraint=eastwest;" parent="25cto-z_pGGvBRUPymMC-71" vertex="1">
                    <mxGeometry y="70" width="573" height="40" as="geometry"/>
                </mxCell>
                <mxCell id="25cto-z_pGGvBRUPymMC-73" value="new comment" style="shape=partialRectangle;html=1;whiteSpace=wrap;connectable=0;fillColor=none;top=0;left=0;bottom=0;right=0;overflow=hidden;pointerEvents=1;fontSize=15;" parent="25cto-z_pGGvBRUPymMC-72" vertex="1">
                    <mxGeometry width="93" height="40" as="geometry">
                        <mxRectangle width="93" height="40" as="alternateBounds"/>
                    </mxGeometry>
                </mxCell>
                <mxCell id="25cto-z_pGGvBRUPymMC-74" value="POST" style="shape=partialRectangle;html=1;whiteSpace=wrap;connectable=0;fillColor=none;top=0;left=0;bottom=0;right=0;overflow=hidden;pointerEvents=1;fontSize=15;" parent="25cto-z_pGGvBRUPymMC-72" vertex="1">
                    <mxGeometry x="93" width="93" height="40" as="geometry">
                        <mxRectangle width="93" height="40" as="alternateBounds"/>
                    </mxGeometry>
                </mxCell>
                <mxCell id="25cto-z_pGGvBRUPymMC-75" value="/api/todo/:todoId/comment" style="shape=partialRectangle;html=1;whiteSpace=wrap;connectable=0;fillColor=none;top=0;left=0;bottom=0;right=0;overflow=hidden;pointerEvents=1;fontSize=15;" parent="25cto-z_pGGvBRUPymMC-72" vertex="1">
                    <mxGeometry x="186" width="274" height="40" as="geometry">
                        <mxRectangle width="274" height="40" as="alternateBounds"/>
                    </mxGeometry>
                </mxCell>
                <mxCell id="25cto-z_pGGvBRUPymMC-76" value="{content:string}" style="shape=partialRectangle;html=1;whiteSpace=wrap;connectable=0;fillColor=none;top=0;left=0;bottom=0;right=0;overflow=hidden;pointerEvents=1;fontSize=15;" parent="25cto-z_pGGvBRUPymMC-72" vertex="1">
                    <mxGeometry x="460" width="113" height="40" as="geometry">
                        <mxRectangle width="113" height="40" as="alternateBounds"/>
                    </mxGeometry>
                </mxCell>
                <mxCell id="25cto-z_pGGvBRUPymMC-77" value="" style="shape=partialRectangle;html=1;whiteSpace=wrap;collapsible=0;dropTarget=0;pointerEvents=0;fillColor=none;top=0;left=0;bottom=0;right=0;points=[[0,0.5],[1,0.5]];portConstraint=eastwest;" parent="25cto-z_pGGvBRUPymMC-71" vertex="1">
                    <mxGeometry y="110" width="573" height="60" as="geometry"/>
                </mxCell>
                <mxCell id="25cto-z_pGGvBRUPymMC-78" value="delete&lt;br&gt;comment" style="shape=partialRectangle;html=1;whiteSpace=wrap;connectable=0;fillColor=none;top=0;left=0;bottom=0;right=0;overflow=hidden;pointerEvents=1;fontSize=15;" parent="25cto-z_pGGvBRUPymMC-77" vertex="1">
                    <mxGeometry width="93" height="60" as="geometry">
                        <mxRectangle width="93" height="60" as="alternateBounds"/>
                    </mxGeometry>
                </mxCell>
                <mxCell id="25cto-z_pGGvBRUPymMC-79" value="DELETE" style="shape=partialRectangle;html=1;whiteSpace=wrap;connectable=0;fillColor=none;top=0;left=0;bottom=0;right=0;overflow=hidden;pointerEvents=1;fontSize=15;" parent="25cto-z_pGGvBRUPymMC-77" vertex="1">
                    <mxGeometry x="93" width="93" height="60" as="geometry">
                        <mxRectangle width="93" height="60" as="alternateBounds"/>
                    </mxGeometry>
                </mxCell>
                <mxCell id="25cto-z_pGGvBRUPymMC-80" value="&lt;span style=&quot;color: rgb(0 , 0 , 0) ; font-family: &amp;#34;helvetica&amp;#34; ; font-size: 15px ; font-style: normal ; font-weight: 400 ; letter-spacing: normal ; text-align: center ; text-indent: 0px ; text-transform: none ; word-spacing: 0px ; background-color: rgb(248 , 249 , 250) ; display: inline ; float: none&quot;&gt;/api/todo/:todoId/comment/:commentId&lt;/span&gt;" style="shape=partialRectangle;html=1;whiteSpace=wrap;connectable=0;fillColor=none;top=0;left=0;bottom=0;right=0;overflow=hidden;pointerEvents=1;fontSize=15;" parent="25cto-z_pGGvBRUPymMC-77" vertex="1">
                    <mxGeometry x="186" width="274" height="60" as="geometry">
                        <mxRectangle width="274" height="60" as="alternateBounds"/>
                    </mxGeometry>
                </mxCell>
                <mxCell id="25cto-z_pGGvBRUPymMC-81" value="-" style="shape=partialRectangle;html=1;whiteSpace=wrap;connectable=0;fillColor=none;top=0;left=0;bottom=0;right=0;overflow=hidden;pointerEvents=1;fontSize=15;" parent="25cto-z_pGGvBRUPymMC-77" vertex="1">
                    <mxGeometry x="460" width="113" height="60" as="geometry">
                        <mxRectangle width="113" height="60" as="alternateBounds"/>
                    </mxGeometry>
                </mxCell>
            </root>
        </mxGraphModel>
    </diagram>
</mxfile>